<svg id="Ant" xmlns="http://www.w3.org/2000/svg" width="388.4354" height="394.53089" viewBox="0 0 388.4354 394.53089">
  <g id="Ant_mirror" data-name="Ant mirror">
    <path d="M420.51994,99.331c-4.2691-.86982-8.51256-2.97347-10.845-6.80886a10.41907,10.41907,0,0,1,.20112-11.4184l.27555.6773a13.91636,13.91636,0,0,1-7.37769-19.30216l.63082.63083a25.96563,25.96563,0,0,0-8.09823,41.69385.46526.46526,0,0,1,0,.652c-9.63457,7.94643-14.43125,20.08618-17.55659,31.85176a22.57892,22.57892,0,0,0-.46641,11.5461,43.03659,43.03659,0,0,0,3.67144,9.36827c2.82552,5.43318,6.84512,10.51157,12.34029,13.42153,6.15879,3.26139,13.99543,3.51974,19.78514-.64825l.46541.79623c-2.49764,1.47215-4.94133,3.04548-7.33624,4.67849-2.0666,1.40915-4.10757,2.8706-6.026,4.47774a15.61933,15.61933,0,0,0-3.88409,4.07542c-.63892,1.17825-.54727,2.24839-1.91464,2.91462-1.6802.81865-3.86764.68574-5.68.71521-2.33788.038-4.95559-.10131-7.136.87527-.99787.44693-1.49827,1.4551-2.52329,1.7859-1.66573.53756-3.914-.10682-5.54556-.46168a98.70633,98.70633,0,0,1-9.85031-2.81862c-8.48563-2.79464-16.822-6.06237-25.065-9.50136-6.82413-2.84707-13.69695-5.74185-20.22355-9.23174-1.23991-.663-3.07292-1.39991-3.92115-2.59557-1.29837-1.83018-1.43388-5.09078-1.81328-7.21141-1.51672-8.47767-2.58519-17.04314-3.63958-25.5885q-.24243-1.96479-.47665-3.93058c-.03471-.2921-.05166-.59264-.10421-.88209-.083-.45684.15455.20737.05881.05607a44.94594,44.94594,0,0,0-4.08087-4.78245c-5.73142-6.676-11.50614-13.32552-17.50263-19.7658a82.56786,82.56786,0,0,0-7.14356-7.15327c-.958-.80353-2.10811-1.29857-3.0251-2.14966a18.04893,18.04893,0,0,1-3.857-5.92478,31.63522,31.63522,0,0,1-1.41522-3.68213h.88919l-3.17915,8.34527a.47481.47481,0,0,1-.4446.3385l-7.35178-.3974.2327-.85917a72.516,72.516,0,0,1,9.54453,6.32729c2.06306,1.771,3.91025,3.85216,5.79734,5.80315,6.3202,6.53419,12.63393,13.14179,18.4525,20.13152,1.34492,1.61562,3.13061,3.39663,3.72419,5.47011a70.07662,70.07662,0,0,1,1.51245,8.758c1.36482,9.014,2.51423,18.10073,4.46361,27.01288a46.64984,46.64984,0,0,0,1.21375,4.68714,4.69884,4.69884,0,0,0,1.126,2.25287c1.07184.82579,3.06795,1.23694,4.32585,1.75142q10.62909,4.34733,21.258,8.69515c8.61764,3.50806,17.24257,7.00023,25.90619,10.3935,3.39966,1.33153,6.80424,2.65289,10.23225,3.91a46.81492,46.81492,0,0,0,5.84516,1.95564,12.1842,12.1842,0,0,1,4.59349,1.72631,19.26787,19.26787,0,0,0,2.76623,1.84117c1.5966.723,3.193.20559,4.725-.41809,2.918-1.188,5.546-2.989,8.46357-4.17182,1.633-.66206,3.09147-.75382,4.09691.91854,1.44293,2.4,1.08108,5.82011.40841,8.38939a9.13454,9.13454,0,0,1-3.92117,5.67574,31.987,31.987,0,0,1-6.35021,2.899,14.81382,14.81382,0,0,0-4.4362,2.62811c-1.11544.91564-2.95351,1.19027-4.30363,1.53435-3.00253.76519-6.04531,1.37732-9.08346,1.98155-8.79466,1.7491-17.62817,3.3-26.44428,4.93575-8.3601,1.55114-16.7422,3.0831-25.01252,5.06879a59.03013,59.03013,0,0,0-7.8875,2.26918,4.63563,4.63563,0,0,0-2.887,2.64289c-3.33837,6.41453-5.93434,13.27465-8.67617,19.95541-3.59466,8.75876-7.1015,17.55351-10.585,26.357q-1.95075,4.93-3.89187,9.8637a41.27506,41.27506,0,0,1-1.79944,4.51983,20.58129,20.58129,0,0,1-3.74418,4.21584c-2.67642,2.68639-5.44392,5.28292-8.221,7.86449q-10.29588,9.5711-20.90176,18.805c-2.74791,2.40257-5.50539,4.79572-8.3071,7.13556a27.50941,27.50941,0,0,1-4.68733,3.53931,59.003,59.003,0,0,1-11.60167,4.07381v-.88919l8.74266,2.78176a.46934.46934,0,0,1,.3385.44459l-.3974,5.76221-.78708-.326c12.42275-10.53233,24.93714-20.95455,37.43288-31.40021l21.07239-17.6152a12.20375,12.20375,0,0,0,1.46345-1.22335c.02324-.027-.18235.297-.00161-.03892a8.82073,8.82073,0,0,0,.39852-1.05871q1.92972-5.122,3.87919-10.23647c4.1513-10.89816,8.32511-21.7916,12.71159-32.5977,1.48059-3.64746,2.92879-7.33618,4.65308-10.87778a5.165,5.165,0,0,1,3.681-3.126c8.91628-3.08817,18.49584-4.6894,27.71132-6.599,10.57267-2.19084,21.17353-4.2467,31.78525-6.23912,2.30105-.432,4.60231-.92492,6.91611-1.28525,1.25689-.19575,2.521-.32991,3.77359-.56221a29.20441,29.20441,0,0,0,4.33206-1.08349,7.073,7.073,0,0,0,3.36591-2.4618,3.43053,3.43053,0,0,1,5.54686.69522c1.10159,2.0288.276,3.71956-1.16628,5.23341a46.92841,46.92841,0,0,1-7.19523,5.60062c-2.16749,1.52483-4.58489,2.97492-5.99674,5.24652a14.527,14.527,0,0,1-3.0413,3.10571c-2.57483,2.22334-5.23557,4.34877-7.89374,6.47092-8.4287,6.72907-16.96456,13.324-25.473,19.95166-9.60189,7.47937-19.20271,14.962-28.69481,22.5806-6.95633,5.58335-14.04529,11.13608-20.48563,17.32092-1.17493,1.12832-2.95214,2.54447-3.49534,4.1-.8812,2.52337-.7615,5.75341-.99135,8.38126-1.01129,11.56164-1.66107,23.164-2.13642,34.75907-.22493,5.48664-.40834,10.97834-.42431,16.47008-.00925,3.184-.2429,6.67716.48588,9.80636.43387,1.86292-.53651,3.24-1.59707,4.78279a93.97061,93.97061,0,0,1-7.83242,9.50357c-7.89909,8.75844-16.294,17.082-24.77758,25.27044-6.03911,5.829-12.04181,12.01436-18.697,17.15676a15.57213,15.57213,0,0,1-3.75089,1.92863c-2.52214,1.03619-5.09947,1.953-7.69284,2.795v-.88918l4.03034,1.48947a29.69167,29.69167,0,0,1,4.99212,1.84491,8.67073,8.67073,0,0,1,2.00179,2.49347l2.96138,4.12018h-.79623l3.28552-6.88394a7.3267,7.3267,0,0,1,1.37183-2.31741c2.40991-2.3534,5.06228-4.50171,7.57131-6.74844,9.83746-8.80905,19.62649-17.67694,29.24287-26.72743,4.3445-4.08885,8.67436-8.20308,12.83382-12.48139,1.89844-1.95268,4.88423-4.33578,5.74921-7.03,1.26257-3.93262,1.048-8.67678,1.22759-12.75058.30414-6.89858.423-13.80525.53355-20.70914.11312-7.06272.18819-14.1262.33753-21.1883.09973-4.71582.08414-9.50013.62291-14.19261.24414-2.1264,1.02445-3.07995,2.5344-4.56839,2.83395-2.79356,5.8818-5.37974,8.90525-7.96334,9.86735-8.43188,19.98348-16.577,30.13753-24.65957,9.8291-7.82386,19.70983-15.59387,29.77088-23.1184,2.88225-2.15559,5.76092-4.35306,8.78451-6.30973a11.83724,11.83724,0,0,1,2.03943-1.07458c2.33091-.94424,4.05457-2.62385,5.95189-4.22069,1.08679-.91468,2.33-2.02164,3.81126-2.14627a8.29512,8.29512,0,0,0,5.70018-2.76295,11.1597,11.1597,0,0,0,2.15706-2.9326c.40716-.84853.48982-1.76491.84448-2.62506.6298-1.52745,2.9266-3.63992,4.06181-1.32576.74986,1.5286.28262,3.60862.02532,5.20926a16.3954,16.3954,0,0,1-1.7222,5.28106c-2.368,4.35974-6.09864,8.08274-9.70474,11.41346-.30944.2858-1.63132,1.25389-1.61051,1.70461.02818.61046,2.02171.77891,2.4848.89036a40.83558,40.83558,0,0,1,4.91508,1.46258.46534.46534,0,0,1,0,.88919,20.04807,20.04807,0,0,0-10.17919,6.51174c-3.21679,4.017-3.89226,9.76609-4.16074,14.73618-.27,4.99926-.2021,10.903,2.23484,15.427,1.19768,2.22338,3.41575,3.67319,5.41821,5.11476,2.58876,1.86365,5.26917,3.59531,7.917,5.37267a47.05123,47.05123,0,0,1,6.74157,5.01974c1.6616,1.617,3.10789,4.25234,5.81451,3.93824.58838-.06828.58349.85442,0,.92213-1.958.22722-3.88557-1.14383-5.0679-2.55775a29.399,29.399,0,0,0-6.18-5.3234c-2.91463-2.00561-5.90269-3.903-8.79625-5.93951-2.06789-1.4554-4.5411-2.9682-6.02141-5.06425-2.93865-4.161-3.14951-10.28833-3.0472-15.17741.10442-4.99027.59169-10.79078,3.154-15.2023a20.07469,20.07469,0,0,1,11.92734-8.66705v.88919a40.83268,40.83268,0,0,0-4.91508-1.46259c-.81367-.19582-2.81457-.268-3.15751-1.34071-.279-.87278.72-1.69821,1.25955-2.22086,1.82019-1.76326,3.71424-3.40962,5.37032-5.33886,3.33683-3.88722,6.0085-7.55528,6.60383-12.74649.09975-.86982.50081-2.93641-.31-3.5978-.75421-.61519-1.53647.31277-1.93182.9766a11.3679,11.3679,0,0,0-.776,2.36292,9.39655,9.39655,0,0,1-1.43509,2.58946,13.20722,13.20722,0,0,1-4.31576,3.79969c-1.441.751-3.0266.37483-4.39041,1.07509-1.90521.97824-3.39065,2.74736-5.07191,4.05038a16.23355,16.23355,0,0,1-3.67592,2.00587c-2.1383.92964-4.18984,2.71345-6.08765,4.09271-9.30892,6.76538-18.364,13.89059-27.39787,21.0162-10.55864,8.32832-21.05289,16.74522-31.3715,25.36992-3.76337,3.14558-7.51626,6.3104-11.15536,9.59988-1.46505,1.3243-4.05363,3.14319-4.84237,4.91411a11.19663,11.19663,0,0,0-.48307,3.54754c-.168,2.2952-.248,4.59742-.3195,6.89728-.20342,6.53813-.27649,13.08029-.371,19.62066-.17944,12.41523.16234,25.09306-1.32407,37.4422a10.80579,10.80579,0,0,1-2.7005,6.5531c-3.06857,3.60511-6.52479,6.90227-9.92019,10.19357-9.6698,9.37336-19.64229,18.43789-29.64108,27.4575q-5.55139,5.00775-11.13484,9.97985c-.9164.81594-1.85118,1.61478-2.75331,2.44647a7.03851,7.03851,0,0,0-1.43242,2.48744l-3.14062,6.58035a.46639.46639,0,0,1-.79623,0l-2.62624-3.65391c-.53051-.7381-1.12834-1.45913-1.60527-2.23341a2.3164,2.3164,0,0,0-.32362-.45026c.28849.26836.22742.17357-.09715.05893-2.9418-1.03906-5.85573-2.16407-8.78226-3.24562a.46542.46542,0,0,1,0-.88918c3.833-1.24442,8.34483-2.312,11.52857-4.87791,2.6626-2.14591,5.17033-4.49881,7.68227-6.81612q12.44284-11.47872,24.29306-23.58987c3.93343-4.01011,7.82214-8.069,11.56911-12.25463a80.16133,80.16133,0,0,0,7.448-9.1678,6.59687,6.59687,0,0,0,1.37913-2.76835,11.88018,11.88018,0,0,0-.38314-1.89193,74.592,74.592,0,0,1-.31887-10.89622c.123-11.70213.74882-23.40764,1.496-35.08447.3277-5.12152.68594-10.24275,1.15116-15.35385.21775-2.39228.14831-5.27029.94195-7.57057.5487-1.59035,2.14917-2.91949,3.31153-4.05463,2.59009-2.52944,5.34864-4.88991,8.11009-7.22846,8.19088-6.93649,16.62224-13.59092,25.0568-20.22685,16.19866-12.74436,32.86061-25.00082,48.631-38.27788a20.297,20.297,0,0,0,3.91281-3.60959,13.87483,13.87483,0,0,1,2.927-3.28632c2.401-1.89288,4.99217-3.52971,7.43006-5.37345,1.914-1.44756,5.74332-3.91967,4.13839-6.78079-1.26605-2.257-3.35062-1.31313-4.59159.22378a5.8125,5.8125,0,0,1-2.39493,1.62888c-3.00969,1.26726-6.69212,1.55985-9.5319,2.08275-18.91585,3.48308-37.88823,6.97708-56.59038,11.4859a77.66607,77.66607,0,0,0-10.02011,2.80427c-1.94511.75809-2.36391,2.32147-3.19548,4.172-4.31045,9.59208-7.99311,19.49014-11.7803,29.29616q-2.92962,7.58556-5.81447,15.18831c-1.02058,2.68711-1.8229,5.63785-3.106,8.21347a8.61289,8.61289,0,0,1-2.477,2.3995l-9.03155,7.54981c-13.23687,11.06519-26.5197,22.0778-39.711,33.19725q-4.52508,3.81437-9.0285,7.6546c-.27785.23558-.81684.10548-.78708-.326l.26247-3.80579c.04173-.60512.03976-1.2326.12643-1.83328.02828-.196.58585.29142.1653.26365a2.95574,2.95574,0,0,1-.61428-.19545l-7.9467-2.5285a.465.465,0,0,1,0-.88919c3.96872-1.08705,8.524-2.14549,12.03627-4.34051a42.51085,42.51085,0,0,0,4.63267-3.69562c6.448-5.42971,12.74993-11.03774,19.01172-16.6802,6.09259-5.49,12.21988-10.98564,17.986-16.82195a17.04821,17.04821,0,0,0,3.31663-3.83933c.8674-1.74626,1.46142-3.69125,2.17535-5.50338,6.28482-15.95242,12.49224-31.95911,19.32752-47.686,1.103-2.53781,2.19013-5.10618,3.48936-7.552a4.88815,4.88815,0,0,1,2.63812-2.571c5.55223-2.44975,11.9937-3.38688,17.89489-4.59374,16.48612-3.37162,33.22094-5.7037,49.60569-9.55068,1.653-.38811,3.84912-.65028,5.316-1.57872a28.64121,28.64121,0,0,1,2.33436-1.817c2.036-1.06768,4.28619-1.67589,6.37359-2.632,2.85886-1.30952,4.98219-2.99464,5.86964-6.11713.57271-2.01507,1.63951-10.086-2.53892-8.79609-2.85222.8805-5.42116,2.759-8.131,3.988-1.92957.87507-4.05735,1.77867-6.15086.94627a15.23713,15.23713,0,0,1-2.94766-1.8719,9.80312,9.80312,0,0,0-4.0051-1.65586,16.03635,16.03635,0,0,1-1.70277-.43132c-2.45-.75391-4.85268-1.67787-7.25017-2.58137-7.93054-2.98863-15.79467-6.15572-23.65359-9.32672q-12.216-4.929-24.3989-9.93939-4.09458-1.6781-8.19008-3.354c-1.0428-.42535-2.65857-.75787-3.49282-1.55812-1.52115-1.45914-1.87568-4.81587-2.30475-6.72871-.96241-4.29049-1.67425-8.63856-2.36589-12.97935-1.20607-7.56952-1.8325-15.39636-3.61579-22.85845-.517-2.16358-2.30186-3.93122-3.68766-5.59161-2.85745-3.42364-5.86621-6.72287-8.89061-9.99875q-4.67164-5.0601-9.46026-10.01107c-1.87748-1.94105-3.71583-4.00665-5.76384-5.77352a70.3486,70.3486,0,0,0-9.3914-6.21274.46467.46467,0,0,1,.23271-.85917l4.24425.22942a15.68778,15.68778,0,0,1,2.52726.13661c.17791.04066.3744-.00044.55465.03-.78682-.13278-.33614.61314-.3284.10212a6.58119,6.58119,0,0,1,.65411-1.717l1.04877-2.753,1.3857-3.63746a.46542.46542,0,0,1,.88919,0c1.1799,3.85395,3.06434,8.03427,6.5438,10.25539a30.86208,30.86208,0,0,1,5.20569,4.61982c6.06818,6.18794,11.75665,12.76127,17.43179,19.30733q3.17966,3.66762,6.32714,7.363a4.76011,4.76011,0,0,1,1.53234,2.461c1.02917,7.29809,1.79871,14.63045,2.87937,21.9237.57294,3.86665,1.14549,7.75084,1.99016,11.56947.36935,1.66979.52377,3.08815,1.97942,4.054,5.04456,3.34706,10.99315,5.6388,16.515,8.04547,8.2565,3.59859,16.6244,6.96716,25.10237,10.00939,6.02313,2.16134,12.55579,4.87037,18.99511,5.42646a4.38023,4.38023,0,0,0,2.14177-.11124c.30779-.15138.45772-.466.7023-.69991a5.6826,5.6826,0,0,1,2.078-1.20481,20.78748,20.78748,0,0,1,6.5306-.72756c1.7586-.02831,4.59732.316,6.0855-.84465.62193-.485.60664-1.15875.88286-1.83068a6.77986,6.77986,0,0,1,1.07148-1.65821,27.79875,27.79875,0,0,1,4.44838-4.11322,111.39053,111.39053,0,0,1,10.26435-7.05315c.67725-.41989,1.3565-.83713,2.043-1.24177.52116-.30718.9382.45587.46541.79623-4.93454,3.55236-11.36869,4.03134-17.0682,2.18777-5.98016-1.93434-10.71436-6.36373-14.12276-11.534-3.627-5.50183-6.99926-12.74549-6.57639-19.46994a45.20608,45.20608,0,0,1,2.36968-10.35424,93.70429,93.70429,0,0,1,3.5153-9.62642c3.00408-6.92168,7.12761-13.35479,12.99105-18.19085v.652a26.88093,26.88093,0,0,1,8.28486-43.14212.46518.46518,0,0,1,.63082.63082,12.97612,12.97612,0,0,0,6.82659,17.94756.46666.46666,0,0,1,.27555.6773,9.60056,9.60056,0,0,0,.11519,10.97827c2.27384,3.33434,6.13422,5.1113,9.97763,5.89438.58106.11839.33513,1.00742-.24514.88919Z" transform="translate(-226.7272 -62.26252)" fill="#231f20"/>
    <path d="M421.36986,99.331c4.2691-.86982,8.51256-2.97347,10.845-6.80886a10.41907,10.41907,0,0,0-.20112-11.4184l-.27555.6773a13.91636,13.91636,0,0,0,7.37769-19.30216l-.63082.63083a25.96563,25.96563,0,0,1,8.09823,41.69385.46526.46526,0,0,0,0,.652c9.63457,7.94643,14.43125,20.08618,17.55659,31.85176a22.57892,22.57892,0,0,1,.46641,11.5461,43.03659,43.03659,0,0,1-3.67144,9.36827c-2.82552,5.43318-6.84512,10.51157-12.34029,13.42153-6.15879,3.26139-13.99543,3.51974-19.78514-.64825l-.46541.79623c2.49764,1.47215,4.94133,3.04548,7.33624,4.67849,2.0666,1.40915,4.10757,2.8706,6.026,4.47774a15.61933,15.61933,0,0,1,3.88409,4.07542c.63892,1.17825.54727,2.24839,1.91464,2.91462,1.6802.81865,3.86764.68574,5.68.71521,2.33788.038,4.95559-.10131,7.136.87527.99787.44693,1.49827,1.4551,2.52329,1.7859,1.66573.53756,3.914-.10682,5.54556-.46168a98.70633,98.70633,0,0,0,9.85031-2.81862c8.48563-2.79464,16.822-6.06237,25.065-9.50136,6.82413-2.84707,13.69695-5.74185,20.22355-9.23174,1.23991-.663,3.07292-1.39991,3.92115-2.59557,1.29837-1.83018,1.43388-5.09078,1.81328-7.21141,1.51672-8.47767,2.58519-17.04314,3.63958-25.5885q.24243-1.96479.47665-3.93058c.03471-.2921.05166-.59264.10421-.88209.083-.45684-.15455.20737-.05881.05607a44.94594,44.94594,0,0,1,4.08087-4.78245c5.73142-6.676,11.50614-13.32552,17.50263-19.7658a82.56786,82.56786,0,0,1,7.14356-7.15327c.958-.80353,2.10811-1.29857,3.0251-2.14966a18.04893,18.04893,0,0,0,3.857-5.92478,31.63522,31.63522,0,0,0,1.41522-3.68213h-.88919l3.17915,8.34527a.47481.47481,0,0,0,.4446.3385l7.35178-.3974-.2327-.85917a72.516,72.516,0,0,0-9.54453,6.32729c-2.06306,1.771-3.91025,3.85216-5.79734,5.80315-6.3202,6.53419-12.63393,13.14179-18.4525,20.13152-1.34492,1.61562-3.13061,3.39663-3.72419,5.47011a70.07662,70.07662,0,0,0-1.51245,8.758c-1.36482,9.014-2.51423,18.10073-4.46361,27.01288a46.64984,46.64984,0,0,1-1.21375,4.68714,4.69884,4.69884,0,0,1-1.126,2.25287c-1.07184.82579-3.06795,1.23694-4.32585,1.75142q-10.62909,4.34733-21.258,8.69515c-8.61764,3.50806-17.24257,7.00023-25.90619,10.3935-3.39966,1.33153-6.80424,2.65289-10.23225,3.91a46.81492,46.81492,0,0,1-5.84516,1.95564,12.1842,12.1842,0,0,0-4.59349,1.72631,19.26787,19.26787,0,0,1-2.76623,1.84117c-1.5966.723-3.193.20559-4.725-.41809-2.918-1.188-5.546-2.989-8.46357-4.17182-1.633-.66206-3.09147-.75382-4.09691.91854-1.44293,2.4-1.08108,5.82011-.40841,8.38939a9.13454,9.13454,0,0,0,3.92117,5.67574,31.987,31.987,0,0,0,6.35021,2.899,14.81382,14.81382,0,0,1,4.4362,2.62811c1.11544.91564,2.95351,1.19027,4.30363,1.53435,3.00253.76519,6.04531,1.37732,9.08346,1.98155,8.79466,1.7491,17.62817,3.3,26.44428,4.93575,8.3601,1.55114,16.7422,3.0831,25.01252,5.06879a59.03013,59.03013,0,0,1,7.8875,2.26918,4.63563,4.63563,0,0,1,2.887,2.64289c3.33837,6.41453,5.93434,13.27465,8.67617,19.95541,3.59466,8.75876,7.1015,17.55351,10.585,26.357q1.95075,4.93,3.89187,9.8637a41.27506,41.27506,0,0,0,1.79944,4.51983,20.58129,20.58129,0,0,0,3.74418,4.21584c2.67642,2.68639,5.44392,5.28292,8.221,7.86449q10.29588,9.5711,20.90176,18.805c2.74791,2.40257,5.50539,4.79572,8.3071,7.13556a27.50941,27.50941,0,0,0,4.68733,3.53931,59.003,59.003,0,0,0,11.60167,4.07381v-.88919l-8.74266,2.78176a.46934.46934,0,0,0-.3385.44459l.3974,5.76221.78708-.326c-12.42275-10.53233-24.93714-20.95455-37.43288-31.40021l-21.07239-17.6152a12.20375,12.20375,0,0,1-1.46345-1.22335c-.02324-.027.18235.297.00161-.03892a8.82073,8.82073,0,0,1-.39852-1.05871q-1.92972-5.122-3.87919-10.23647c-4.1513-10.89816-8.32511-21.7916-12.71159-32.5977-1.48059-3.64746-2.92879-7.33618-4.65308-10.87778a5.165,5.165,0,0,0-3.681-3.126c-8.91628-3.08817-18.49584-4.6894-27.71132-6.599-10.57267-2.19084-21.17353-4.2467-31.78525-6.23912-2.301-.432-4.60231-.92492-6.91611-1.28525-1.25689-.19575-2.521-.32991-3.77359-.56221a29.20441,29.20441,0,0,1-4.33206-1.08349,7.073,7.073,0,0,1-3.36591-2.4618,3.43053,3.43053,0,0,0-5.54686.69522c-1.10159,2.0288-.276,3.71956,1.16628,5.23341a46.92841,46.92841,0,0,0,7.19523,5.60062c2.16749,1.52483,4.58489,2.97492,5.99674,5.24652a14.527,14.527,0,0,0,3.0413,3.10571c2.57483,2.22334,5.23557,4.34877,7.89374,6.47092,8.4287,6.72907,16.96456,13.324,25.473,19.95166,9.60189,7.47937,19.20271,14.962,28.69481,22.5806,6.95633,5.58335,14.04529,11.13608,20.48563,17.32092,1.17493,1.12832,2.95214,2.54447,3.49534,4.1.8812,2.52337.7615,5.75341.99135,8.38126,1.01129,11.56164,1.66107,23.164,2.13642,34.75907.22493,5.48664.40834,10.97834.42431,16.47008.00925,3.184.2429,6.67716-.48588,9.80636-.43387,1.86292.53651,3.24,1.59707,4.78279a93.97061,93.97061,0,0,0,7.83242,9.50357c7.89909,8.75844,16.294,17.082,24.77758,25.27044,6.03911,5.829,12.04181,12.01436,18.697,17.15676a15.57213,15.57213,0,0,0,3.75089,1.92863c2.52214,1.03619,5.09947,1.953,7.69284,2.795v-.88918l-4.03034,1.48947a29.69167,29.69167,0,0,0-4.99212,1.84491,8.67073,8.67073,0,0,0-2.00179,2.49347l-2.96138,4.12018h.79623l-3.28552-6.88394a7.3267,7.3267,0,0,0-1.37183-2.31741c-2.40991-2.3534-5.06228-4.50171-7.57131-6.74844-9.83746-8.80905-19.62649-17.67694-29.24287-26.72743-4.3445-4.08885-8.67436-8.20308-12.83382-12.48139-1.89844-1.95268-4.88423-4.33578-5.74921-7.03-1.26257-3.93262-1.048-8.67678-1.22759-12.75058-.30414-6.89858-.423-13.80525-.53355-20.70914-.11312-7.06272-.18819-14.1262-.33753-21.1883-.09973-4.71582-.08414-9.50013-.62291-14.19261-.24414-2.1264-1.02445-3.07995-2.5344-4.56839-2.834-2.79356-5.8818-5.37974-8.90525-7.96334-9.86735-8.43188-19.98348-16.577-30.13753-24.65957-9.8291-7.82386-19.70983-15.59387-29.77088-23.1184-2.88225-2.15559-5.76092-4.35306-8.78451-6.30973a11.83724,11.83724,0,0,0-2.03943-1.07458c-2.33091-.94424-4.05457-2.62385-5.95189-4.22069-1.08679-.91468-2.33-2.02164-3.81126-2.14627a8.29512,8.29512,0,0,1-5.70018-2.76295,11.1597,11.1597,0,0,1-2.15706-2.9326c-.40716-.84853-.48982-1.76491-.84448-2.62506-.6298-1.52745-2.9266-3.63992-4.06181-1.32576-.74986,1.5286-.28262,3.60862-.02532,5.20926a16.3954,16.3954,0,0,0,1.7222,5.28106c2.368,4.35974,6.09864,8.08274,9.70474,11.41346.30944.2858,1.63132,1.25389,1.61051,1.70461-.02818.61046-2.02171.77891-2.4848.89036a40.83558,40.83558,0,0,0-4.91508,1.46258.46534.46534,0,0,0,0,.88919,20.04807,20.04807,0,0,1,10.17919,6.51174c3.21679,4.017,3.89226,9.76609,4.16074,14.73618.27005,4.99926.2021,10.903-2.23484,15.427-1.19768,2.22338-3.41575,3.67319-5.41821,5.11476-2.58876,1.86365-5.26917,3.59531-7.917,5.37267a47.05123,47.05123,0,0,0-6.74157,5.01974c-1.6616,1.617-3.10789,4.25234-5.81451,3.93824-.58838-.06828-.58349.85442,0,.92213,1.95805.22722,3.88557-1.14383,5.0679-2.55775a29.399,29.399,0,0,1,6.18-5.3234c2.91463-2.00561,5.90269-3.903,8.79625-5.93951,2.06789-1.4554,4.5411-2.9682,6.02141-5.06425,2.93865-4.161,3.14951-10.28833,3.0472-15.17741-.10442-4.99027-.59169-10.79078-3.154-15.2023a20.07469,20.07469,0,0,0-11.92734-8.66705v.88919a40.83268,40.83268,0,0,1,4.91508-1.46259c.81367-.19582,2.81457-.268,3.15751-1.34071.279-.87278-.72-1.69821-1.25955-2.22086-1.82019-1.76326-3.71424-3.40962-5.37032-5.33886-3.33683-3.88722-6.0085-7.55528-6.60383-12.74649-.09975-.86982-.50081-2.93641.31-3.5978.75421-.61519,1.53647.31277,1.93182.9766a11.3679,11.3679,0,0,1,.776,2.36292,9.39655,9.39655,0,0,0,1.43509,2.58946,13.20722,13.20722,0,0,0,4.31576,3.79969c1.441.751,3.0266.37483,4.39041,1.07509,1.90521.97824,3.39065,2.74736,5.07191,4.05038a16.23355,16.23355,0,0,0,3.67592,2.00587c2.1383.92964,4.18984,2.71345,6.08765,4.09271,9.30892,6.76538,18.364,13.89059,27.39787,21.0162,10.55864,8.32832,21.05289,16.74522,31.3715,25.36992,3.76337,3.14558,7.51626,6.3104,11.15536,9.59988,1.46505,1.3243,4.05363,3.14319,4.84237,4.91411a11.19663,11.19663,0,0,1,.48307,3.54754c.168,2.2952.248,4.59742.3195,6.89728.20342,6.53813.27649,13.08029.371,19.62066.17944,12.41523-.16234,25.09306,1.32407,37.4422a10.80579,10.80579,0,0,0,2.7005,6.5531c3.06857,3.60511,6.52479,6.90227,9.92019,10.19357,9.6698,9.37336,19.64229,18.43789,29.64108,27.4575q5.5514,5.00775,11.13484,9.97985c.9164.81594,1.85118,1.61478,2.75331,2.44647a7.03851,7.03851,0,0,1,1.43242,2.48744l3.14062,6.58035a.46639.46639,0,0,0,.79623,0l2.62624-3.65391c.53051-.7381,1.12834-1.45913,1.60527-2.23341a2.3164,2.3164,0,0,1,.32362-.45026c-.28849.26836-.22742.17357.09715.05893,2.9418-1.03906,5.85573-2.16407,8.78226-3.24562a.46542.46542,0,0,0,0-.88918c-3.833-1.24442-8.34483-2.312-11.52857-4.87791-2.6626-2.14591-5.17033-4.49881-7.68227-6.81612q-12.44284-11.47872-24.29306-23.58987c-3.93343-4.01011-7.82214-8.069-11.56911-12.25463a80.16133,80.16133,0,0,1-7.448-9.1678,6.59687,6.59687,0,0,1-1.37913-2.76835,11.88018,11.88018,0,0,1,.38314-1.89193,74.592,74.592,0,0,0,.31887-10.89622c-.123-11.70213-.74882-23.40764-1.496-35.08447-.3277-5.12152-.68594-10.24275-1.15116-15.35385-.21775-2.39228-.14831-5.27029-.94195-7.57057-.5487-1.59035-2.14917-2.91949-3.31153-4.05463-2.59009-2.52944-5.34864-4.88991-8.11009-7.22846-8.19088-6.93649-16.62224-13.59092-25.0568-20.22685-16.19866-12.74436-32.86061-25.00082-48.631-38.27788a20.297,20.297,0,0,1-3.91281-3.60959,13.87483,13.87483,0,0,0-2.927-3.28632c-2.401-1.89288-4.99217-3.52971-7.43006-5.37345-1.914-1.44756-5.74332-3.91967-4.13839-6.78079,1.26605-2.257,3.35062-1.31313,4.59159.22378a5.8125,5.8125,0,0,0,2.39493,1.62888c3.00969,1.26726,6.69212,1.55985,9.5319,2.08275,18.91585,3.48308,37.88823,6.97708,56.59038,11.4859a77.66607,77.66607,0,0,1,10.02011,2.80427c1.94511.75809,2.36391,2.32147,3.19548,4.172,4.31045,9.59208,7.99311,19.49014,11.7803,29.29616q2.92962,7.58556,5.81447,15.18831c1.02058,2.68711,1.8229,5.63785,3.106,8.21347a8.61289,8.61289,0,0,0,2.477,2.3995l9.03155,7.54981c13.23687,11.06519,26.5197,22.0778,39.711,33.19725q4.52508,3.81437,9.0285,7.6546c.27785.23558.81684.10548.78708-.326l-.26247-3.80579c-.04173-.60512-.03976-1.2326-.12643-1.83328-.02828-.196-.58585.29142-.1653.26365a2.95574,2.95574,0,0,0,.61428-.19545l7.9467-2.5285a.465.465,0,0,0,0-.88919c-3.96872-1.08705-8.524-2.14549-12.03627-4.34051a42.51085,42.51085,0,0,1-4.63267-3.69562c-6.448-5.42971-12.74993-11.03774-19.01172-16.6802-6.09259-5.49-12.21988-10.98564-17.986-16.82195a17.04821,17.04821,0,0,1-3.31663-3.83933c-.8674-1.74626-1.46142-3.69125-2.17535-5.50338-6.28482-15.95242-12.49224-31.95911-19.32752-47.686-1.103-2.53781-2.19013-5.10618-3.48936-7.552a4.88815,4.88815,0,0,0-2.63812-2.571c-5.55223-2.44975-11.9937-3.38688-17.89489-4.59374-16.48612-3.37162-33.22094-5.7037-49.60569-9.55068-1.653-.38811-3.84912-.65028-5.316-1.57872a28.64121,28.64121,0,0,0-2.33436-1.817c-2.036-1.06768-4.28619-1.67589-6.37359-2.632-2.85886-1.30952-4.98219-2.99464-5.86964-6.11713-.57271-2.01507-1.63951-10.086,2.53892-8.79609,2.85222.8805,5.42116,2.759,8.131,3.988,1.92957.87507,4.05735,1.77867,6.15086.94627a15.23713,15.23713,0,0,0,2.94766-1.8719,9.80312,9.80312,0,0,1,4.0051-1.65586,16.03635,16.03635,0,0,0,1.70277-.43132c2.45-.75391,4.85268-1.67787,7.25017-2.58137,7.93054-2.98863,15.79467-6.15572,23.65359-9.32672q12.216-4.929,24.3989-9.93939,4.09458-1.6781,8.19008-3.354c1.0428-.42535,2.65857-.75787,3.49282-1.55812,1.52115-1.45914,1.87568-4.81587,2.30475-6.72871.96241-4.29049,1.67425-8.63856,2.36589-12.97935,1.20607-7.56952,1.8325-15.39636,3.61579-22.85845.517-2.16358,2.30186-3.93122,3.68766-5.59161,2.85745-3.42364,5.86621-6.72287,8.89061-9.99875q4.67165-5.0601,9.46026-10.01107c1.87748-1.94105,3.71583-4.00665,5.76384-5.77352a70.3486,70.3486,0,0,1,9.3914-6.21274.46467.46467,0,0,0-.23271-.85917l-4.24425.22942a15.68778,15.68778,0,0,0-2.52726.13661c-.17791.04066-.3744-.00044-.55465.03.78682-.13278.33614.61314.3284.10212a6.58119,6.58119,0,0,0-.65411-1.717l-1.04877-2.753-1.3857-3.63746a.46542.46542,0,0,0-.88919,0c-1.1799,3.85395-3.06434,8.03427-6.5438,10.25539a30.86208,30.86208,0,0,0-5.20569,4.61982c-6.06818,6.18794-11.75665,12.76127-17.43179,19.30733q-3.17966,3.66762-6.32714,7.363a4.76011,4.76011,0,0,0-1.53234,2.461c-1.02917,7.29809-1.79871,14.63045-2.87937,21.9237-.57294,3.86665-1.14549,7.75084-1.99016,11.56947-.36935,1.66979-.52377,3.08815-1.97942,4.054-5.04456,3.34706-10.99315,5.6388-16.515,8.04547-8.2565,3.59859-16.6244,6.96716-25.10237,10.00939-6.02313,2.16134-12.55579,4.87037-18.99511,5.42646a4.38023,4.38023,0,0,1-2.14177-.11124c-.30779-.15138-.45772-.466-.7023-.69991a5.6826,5.6826,0,0,0-2.078-1.20481,20.78748,20.78748,0,0,0-6.5306-.72756c-1.7586-.02831-4.59732.316-6.0855-.84465-.62193-.485-.60664-1.15875-.88286-1.83068a6.77986,6.77986,0,0,0-1.07148-1.65821,27.79875,27.79875,0,0,0-4.44838-4.11322,111.39053,111.39053,0,0,0-10.26435-7.05315c-.67725-.41989-1.3565-.83713-2.043-1.24177-.52116-.30718-.9382.45587-.46541.79623,4.93454,3.55236,11.36869,4.03134,17.0682,2.18777,5.98016-1.93434,10.71436-6.36373,14.12276-11.534,3.627-5.50183,6.99926-12.74549,6.57639-19.46994a45.20608,45.20608,0,0,0-2.36968-10.35424,93.70429,93.70429,0,0,0-3.5153-9.62642c-3.00408-6.92168-7.12761-13.35479-12.991-18.19085v.652a26.88093,26.88093,0,0,0-8.28486-43.14212.46518.46518,0,0,0-.63082.63082,12.97612,12.97612,0,0,1-6.82659,17.94756.46666.46666,0,0,0-.27555.6773,9.60056,9.60056,0,0,1-.11519,10.97827c-2.27384,3.33434-6.13422,5.1113-9.97763,5.89438-.58106.11839-.33513,1.00742.24514.88919Z" transform="translate(-226.7272 -62.26252)" fill="#231f20"/>
  </g>
</svg>
