<svg xmlns="http://www.w3.org/2000/svg" width="631.13218" height="396.55164" viewBox="0 0 631.13218 396.55164">
  <g id="Layer_2" data-name="Layer 2">
    <path d="M115.72583,197.02492c1.23283-11.38652,16.61377-17.06907,25.63869-20.94224s22.39233-14.31233,39.14333-14.87522,51.73736,1.1476,62.28879,6.9324,11.40744,15.62365,21.43808,11.47918,21.91374-17.41954,17.841-25.85135-15.36956-8.98067-20.68034-4.67091-8.48935,14.79076-10.8351,13.17275-3.33424-5.2822-2.03461-7.54207,6.39492-8.35144,3.87406-8.12063-13.417,2.721-17.73274,5.45758-6.85509,6.22937-8.65967,5.36847-2.685-5.78967-.69242-7.5626,19.13365-6.50936,18.93937-8.47853-9.68272-3.00342-17.33833-3.07208-17.44155-.12416-17.109-3.47087,19.941-2.684,24.25817-2.50091,14.20441,1.44669,12.98658-1.81871-20.01453-15.4904-23.145-18.35212-8.28327-6.97487-6.6496-9.66178,11.444,5.78529,15.06969,8.4011,22.64495,16.91469,24.52112,15.95932,2.70395-4.548.26-11.52577.37006-16.94634,4.29331-15.30926-.41731,3.03264,1.28551,9.76111,4.23439,19.85968,10.47253,20.08611,13.84748-3.6233,23.909-.04821,9.14222,9.32628,7.75105,13.74473-6.6681,17.74687-6.597,23.00626-3.42559,11.032,8.02568,7.269,62.64477-10.49786,85.59163-9.94957,50.71778.24443,59.17245,3.69145,34.16244,16.7277,40.61337,15.66131,9.03168-2.32414,11.64117-10.55287,11.06415-28.92837,21.39353-29.35639,28.24422,28.09522,31.90842,27.10674,6.19186-27.83861,7.86352-27.05416,2.90116,3.26052,2.86611,5.62849-3.057,15.31267-.355,14.92069,7.59765-3.06039,10.27532-11.86906,5.18245-17.00916,6.63645-16.61523,5.11623,3.56145.33306,13.72429-8.76679,16.62837-3.08668,12.28831a57.525,57.525,0,0,0,13.39122-14.05735c3.60966-5.35386,8.38795-17.2,12.02537-15.37354s-5.30225,19.06305-8.88025,23.28527-17.48246,14.7118-15.48018,16.30554,22.41365-2.67718,31.57828-4.92487,24.03417-7.49444,25.03094-3.38324-16.89717,9.38764-28.02267,12.27663-40.49846,4.74812-42.59423,9.469-.00049,7.07567,8.67866,8.44055,19.0684-.09009,19.62157,2.79306-3.15779,7.02892-8.63483,6.70949-33.27574-7.19594-37.89189-9.32S527.82568,167.994,527.646,171.07484s-13.17064,20.2872-7.63418,26.65535,25.16923,15.44755,41.65153,22.00755S633.45863,243.15983,666.226,272.618s69.84121,69.88405,75.3509,103.21384,7.11618,50.94192-4.61829,71.14067-44.46873,40.822-63.16365,46.876,6.92324-6.80932,18.73047-15.49771,29.54726-23.6943,32.96019-43.93233,3.93492-47.44557-2.85735-60.55047-32.05791-52.22387-72.35478-79.20157-86.37741-42.08915-109.45824-51.46053-34.5433-11.89467-42.46867-3.80423-20.62986,15.53434-16.57716,19.73289,15.56482,9.40388,20.61776,15.22861,4.958,9.21964,8.778,13.80463,9.95978,9.44266,11.61926,18.0921.67684,16.66392-2.52865,16.8548-2.69617-12.076-3.92228-15.78841-12.618-18.0473-13.83823-10.081-.88817,11.69522,1.99255,22.37373,6.07355,25.42827,6.41343,36.6799.8015,16.29336-1.696,14.94552-3.16314-11.72541-4.0815-20.12554-6.83707-38.25027-9.70853-38.48644-7.98232,13.94593-10.99378,20.14921-14.70474,25.30577-17.305,19.83018,8.90118-13.63226,12.07065-21.4505,6.29754-17.87152,4.55772-18.076-24.15153,22.46332-25.75988,19.41559,3.00682-10.91905,9.28343-14.29692,13.11513-10.50126,12.24449-12.06335-15.56588,5.99613-16.44139,2.7507,6.32-6.30963,12.45364-9.0874,12.74431-6.58269,10.33495-8.85278S458.18672,274.131,457.167,265.77151s13.507-30.69723,14.9995-33.9076-6.225,1.90392-17.0447,4.26118-50.51863,3.40807-84.06071,3.1349-67.499-8.74536-68.0079-3.55413,8.48145,24.7787,8.82182,28.95466-5.87829,10.68289-15.6,18.35943-15.525,15.30683-14.14938,19.9897,5.64213,16.33523,3.71776,17.52822-5.138-1.56052-7.17493-6.61326-2.34857-16.19968-4.37422-16.21477-20.053,12.26055-22.28023,19.82462-1.82893,14.86907-4.12386,15.93741-5.043-4.95544-4.712-9.97312,3.14548-10.405,6.256-13.02944,14.43426-11.85621,12.45194-13.79226-15.283-.03263-22.51834,2.70542-9.80494,10.28213-12.23427,8.35436.12709-11.60223,5.42982-13.59428,24.83324-4.11607,25.12589-6.77815-4.23391-2.78868-11.2862-4.36781-14.407-3.86287-12.991-6.9403,14.43375,1.04788,17.62757,1.64633,13.49639,2.9854,12.29853-.62231-7.79292-8.90411-6.5897-10.68872,10.68288,5.87828,12.02391,5.85345,16.80707-4.30939,17.57351-9.79472-5.94695-29.95483-16.03529-30.71493-16.6571-1.79582-27.72807,5.45855-43.86319.60186-55.00671-.32283-25.57826-11.96791-35.87743-15.59119S114.052,212.48442,115.72583,197.02492Z" transform="translate(-115.15228 -99.36198)" fill="none" stroke="#231f20" stroke-miterlimit="10"/>
  </g>
</svg>
