<?xml version="1.0" encoding="utf-8"?>
<!-- Generator: Adobe Illustrator 24.1.2, SVG Export Plug-In . SVG Version: 6.00 Build 0)  -->
<svg version="1.1" id="Layer_1" xmlns="http://www.w3.org/2000/svg" xmlns:xlink="http://www.w3.org/1999/xlink" x="0px" y="0px"
	 viewBox="0 0 630.1 395.6" style="enable-background:new 0 0 630.1 395.6;" xml:space="preserve">
<style type="text/css">
	.st0{display:none;}
	.st1{display:inline;}
	.st2{fill:none;stroke:#000000;stroke-linecap:round;stroke-miterlimit:10;}
	.st3{fill:none;stroke:#F58654;stroke-miterlimit:10;}
	.st4{display:none;fill:#F58654;stroke:#000000;stroke-width:0.856;stroke-miterlimit:10;}
	.st5{fill:#F58654;}
	.st6{display:none;fill:none;stroke:#F58654;stroke-width:1.1335;stroke-miterlimit:10;}
</style>
<g id="Spider" class="st0">
	<g class="st1">
		<path class="st2" d="M309.2,143.6c-4.7-0.1-5.8-7.1-12.1-4.6s-1.2,18.1-3.2,18.8s-25.7-7.6-24.9-11.2c0.8-3.6,2.5-3.3,6.4-3.1
			s2.3-5.4,1-6.4s-12.2-3.8-15.5,1.3c-3.3,5.1-0.8,11.4,0,13.2c0.8,1.8,7.6,6.1,1.3,4.3c-6.4-1.8-57-18.8-62.1-21.9
			s-24.4-21.6-33.3-28.8c-8.9-7.1-31.3-25.4-33.1-29.5c-1.8-4.1-21.4-56-25.7-60.3S92.4-2.5,88.8,1.1s6.1,12,9.7,19.6
			s23.7,62.6,26.7,66.4c3.1,3.8,58.8,55.7,66.2,59.3c7.4,3.6,93.5,27.6,91.3,29.3c-3,2.3-95.1,26-107.3,26.7
			c-12.2,0.8-42-4.1-53.2-5.6s-51.7-5.4-58.5-7.6S-1,163-5.9,162s-27.7-0.8-26.2,4.8c1.5,5.6,18.1,2,22.1,3.3s63.6,28.6,70.8,30.6
			c7.1,2,101.6,17,116.8,15.7s102.6-28.5,101.8-27c-1.1,2.1-50.6,58.5-57,61.3c-6.4,2.8-50.9,21.4-57.3,21.4s-36.4-6.4-42-5.9
			c-5.6,0.5-22.4,6.9-19.6,12c2.8,5.1,14.5-3.8,20.1-3.6c5.6,0.3,33.3,9.7,41.5,9.4c8.1-0.3,60.3-15.3,66.7-19.9
			c6.4-4.6,50.5-64.4,47.9-57c-1.9,5.4-29.9,71.5-33.2,75.6s-14,20.9-19.6,29.5c-5.6,8.6-17,27.2-21.4,31.8
			c-4.3,4.6-17,16.3-21.6,21.6s-22.1,26.2-16.5,29.8c5.6,3.6,12.7-15,20.4-22.4c7.6-7.4,21.1-18.3,26.2-25.2
			c5.1-6.9,33.9-46.3,40-56.8c6.1-10.4,31.6-76.6,31.3-72.5c-0.3,4.1-6.6,16-7.4,41s16.3,48.9,31.3,48.9"/>
		<path class="st2" d="M309.2,143.6c4.6,0.8,5.8-7.1,12.1-4.6s1.2,18.1,3.2,18.8s25.7-7.6,24.9-11.2c-0.8-3.6-2.5-3.3-6.4-3.1
			s-2.3-5.4-1-6.4s12.2-3.8,15.5,1.3c3.3,5.1,0.8,11.4,0,13.2c-0.8,1.8-7.6,6.1-1.3,4.3c6.4-1.8,57-18.8,62.1-21.9
			s24.4-21.6,33.3-28.8c8.9-7.1,31.3-25.4,33.1-29.5s21.4-56,25.7-60.3c4.3-4.3,15.5-18.1,19.1-14.5s-6.1,12-9.7,19.6
			s-23.7,62.6-26.7,66.4c-3,3.8-58.8,55.7-66.2,59.3c-7.4,3.6-93.5,27.6-91.3,29.3c3,2.3,95.1,26,107.3,26.7
			c12.2,0.8,42-4.1,53.2-5.6s51.7-5.4,58.5-7.6s64.7-26.2,69.5-27.2s27.7-0.8,26.2,4.8c-1.5,5.6-18.1,2-22.1,3.3
			s-63.6,28.6-70.8,30.6c-7.1,2-101.6,17-116.8,15.7c-15.3-1.3-102.6-28.5-101.8-27c1.1,2.1,50.6,58.5,57,61.3
			c6.4,2.8,50.9,21.4,57.3,21.4s36.4-6.4,42-5.9c5.6,0.5,22.4,6.9,19.6,12c-2.8,5.1-14.5-3.8-20.1-3.6c-5.6,0.3-33.3,9.7-41.5,9.4
			c-8.1-0.3-60.3-15.3-66.7-19.9c-6.4-4.6-50.5-64.4-47.9-57c1.9,5.4,29.9,71.5,33.2,75.6s14,20.9,19.6,29.5s17.1,27.2,21.4,31.8
			c4.3,4.6,17,16.3,21.6,21.6c4.6,5.4,22.1,26.2,16.5,29.8c-5.6,3.6-12.7-15-20.4-22.4s-21.1-18.3-26.2-25.2
			c-5.1-6.9-33.9-46.3-40-56.8s-31.6-76.6-31.3-72.5c0.3,4.1,6.6,16,7.4,41s-16.3,48.9-31.3,48.9"/>
		<path class="st2" d="M308.8,159.9c-4.5,0-14.8-2-14.8-2c-5.5,5-9.4,13-11.3,17.8c-1.7,4.3-2.8,9.4-3.2,13.7
			c-0.7,7.6-0.9,11.7,0.3,17.8s5.5,11.5,5.5,11.5s16.5,2.3,23.9,2.3"/>
		<path class="st2" d="M308.8,159.9c4.5,0,14.8-2,14.8-2c5.5,5,9.4,13,11.3,17.8c1.7,4.3,2.8,9.4,3.2,13.7
			c0.7,7.6,0.9,11.7-0.3,17.8s-5.5,11.5-5.5,11.5s-16.5,2.3-23.9,2.3"/>
	</g>
</g>
<g id="Lizard">
	<path class="st3" d="M0.1,97.2c1.2-11.4,16.6-17.1,25.6-20.9s22.4-14.3,39.1-14.9s51.7,1.2,62.3,6.9s11.4,15.6,21.4,11.5
		s21.9-17.4,17.8-25.8s-15.4-9-20.7-4.7c-5.3,4.3-8.5,14.8-10.8,13.2c-2.4-1.6-3.3-5.3-2-7.5s6.4-8.3,3.9-8.1
		c-2.5,0.2-13.4,2.7-17.7,5.5c-4.3,2.7-6.9,6.2-8.7,5.4s-2.7-5.8-0.7-7.6c2-1.8,19.1-6.5,18.9-8.5s-9.7-3-17.3-3.1
		c-7.7-0.1-17.4-0.1-17.1-3.5s19.9-2.7,24.3-2.5c4.3,0.2,14.2,1.4,13-1.8c-1.2-3.3-20-15.5-23.1-18.3c-3.1-2.9-8.3-7-6.6-9.7
		s11.4,5.8,15.1,8.4c3.6,2.6,22.6,16.9,24.5,16c1.9-1,2.7-4.6,0.3-11.5s0.4-17,4.3-15.3s-0.4,3,1.3,9.8c1.7,6.7,4.2,19.9,10.5,20.1
		s13.9-3.6,23.9-0.1s9.1,9.3,7.8,13.7s-6.7,17.8-6.6,23s-3.4,11,8,7.3c11.5-3.8,62.6-10.5,85.6-9.9c23,0.6,50.7,0.2,59.2,3.7
		c8.5,3.4,34.2,16.7,40.6,15.7s9-2.3,11.6-10.6s11.1-28.9,21.4-29.4s28.2,28.1,31.9,27.1s6.2-27.8,7.9-27c1.7,0.8,2.9,3.3,2.9,5.6
		c0,2.4-3.1,15.3-0.3,14.9c2.7-0.4,7.6-3.1,10.3-11.9s5.2-17,6.6-16.6c1.5,0.4,5.1,3.6,0.3,13.7c-4.8,10.2-8.8,16.6-3.1,12.3
		s9.8-8.7,13.4-14.1c3.6-5.3,8.4-17.2,12-15.4c3.6,1.8-5.3,19.1-8.9,23.3s-17.5,14.7-15.5,16.3c2,1.6,22.4-2.7,31.6-4.9
		s24-7.5,25-3.4c1,4.1-16.9,9.4-28,12.3c-11.1,2.9-40.5,4.8-42.6,9.5s0,7.1,8.7,8.4s19.1-0.1,19.6,2.8s-3.2,7-8.6,6.7
		s-33.3-7.2-37.9-9.3S412.2,68.1,412,71.2c-0.2,3.1-13.2,20.3-7.6,26.7c5.5,6.4,25.2,15.4,41.7,22s71.8,23.4,104.6,52.9
		s69.8,69.9,75.3,103.2c5.5,33.3,7.1,50.9-4.6,71.1c-11.7,20.2-44.5,40.8-63.2,46.9s6.9-6.8,18.7-15.5s29.5-23.7,33-43.9
		s3.9-47.5-2.9-60.5c-6.8-13.1-32.1-52.2-72.3-79.2c-40.3-27-86.4-42.1-109.5-51.5s-34.5-11.9-42.5-3.8s-20.6,15.5-16.6,19.7
		c4,4.2,15.6,9.4,20.6,15.2c5,5.8,5,9.2,8.8,13.8s10,9.4,11.6,18.1s0.7,16.7-2.5,16.9c-3.2,0.2-2.7-12.1-3.9-15.8
		c-1.2-3.7-12.6-18.1-13.8-10.1c-1.2,8-0.9,11.7,2,22.4c2.9,10.7,6.1,25.4,6.4,36.7s0.8,16.3-1.7,15c-2.5-1.4-3.2-11.7-4.1-20.1
		c-0.9-8.4-6.8-38.3-9.7-38.5s-8,14-11,20.1c-3,6.2-14.7,25.3-17.3,19.8c-2.6-5.5,8.9-13.6,12.1-21.5s6.3-17.9,4.6-18.1
		c-1.7-0.2-24.1,22.5-25.8,19.4c-1.6-3,3-10.9,9.3-14.3s13.1-10.5,12.2-12.1c-0.9-1.6-15.6,6-16.4,2.8s6.3-6.3,12.5-9.1
		s12.7-6.6,10.3-8.9s-27.7-16.8-28.7-25.2s13.5-30.7,15-33.9s-6.2,1.9-17,4.3s-50.5,3.4-84.1,3.1s-67.5-8.8-68-3.6
		c-0.5,5.2,8.5,24.8,8.8,28.9s-5.9,10.7-15.6,18.4s-15.5,15.3-14.1,20c1.4,4.7,5.6,16.3,3.7,17.5s-5.1-1.6-7.2-6.6
		s-2.4-16.2-4.4-16.2c-2,0-20.1,12.3-22.3,19.8s-1.8,14.9-4.1,15.9s-5-5-4.7-10c0.3-5,3.1-10.4,6.3-13s14.4-11.9,12.5-13.8
		c-2-1.9-15.3,0-22.5,2.7s-9.8,10.3-12.2,8.4s0.1-11.6,5.4-13.6c5.3-2,24.8-4.1,25.1-6.8c0.3-2.7-4.2-2.8-11.3-4.4
		c-7.1-1.6-14.4-3.9-13-6.9s14.4,1.1,17.6,1.6s13.5,3,12.3-0.6s-7.8-8.9-6.6-10.7c1.2-1.8,10.7,5.9,12,5.9c1.3,0,16.8-4.3,17.6-9.8
		c0.8-5.5-6-29.9-16-30.7c-10.1-0.8-16.7-1.8-27.7,5.5c-11.1,7.3-43.9,0.6-55-0.3c-11.1-0.9-25.6-12-35.9-15.6S-1.6,112.6,0.1,97.2z
		"/>
</g>
<g id="Ant" class="st0">
	<g id="Ant_mirror_1_" class="st1">
		<g>
			<path class="st4" d="M774.5,188.7c-928.3,0-928.3,0-928.3,0"/>
			<g>
				<path class="st5" d="M309.9,38.1c-4.3-0.9-8.5-3-10.9-6.8c-2.1-3.5-2.2-8.1,0.2-11.4c0.1,0.2,0.2,0.4,0.3,0.7
					c-7.7-3.1-11.1-11.8-7.4-19.3c0.2,0.2,0.4,0.4,0.6,0.6c-7.2,3.3-12.8,9.9-14.6,17.7c-2,8.5,0.6,17.7,6.5,24
					c0.2,0.2,0.2,0.5,0,0.7c-9.6,7.9-14.4,20.1-17.6,31.8c-1,3.9-1.4,7.6-0.5,11.6c0.8,3.3,2.1,6.4,3.7,9.4
					c2.8,5.4,6.9,10.5,12.3,13.4c6.2,3.3,14,3.5,19.8-0.6c0.2,0.3,0.3,0.5,0.5,0.8c-2.5,1.5-4.9,3.1-7.3,4.7c-2.1,1.4-4.1,2.9-6,4.5
					c-1.4,1.2-3,2.5-3.9,4.1c-0.6,1.2-0.5,2.3-1.9,2.9c-1.7,0.8-3.9,0.7-5.7,0.7c-2.3,0-5-0.1-7.1,0.9c-1,0.4-1.5,1.5-2.5,1.8
					c-1.7,0.5-3.9-0.1-5.5-0.5c-3.3-0.7-6.6-1.8-9.8-2.8c-8.5-2.8-16.8-6.1-25.1-9.5c-6.8-2.9-13.7-5.7-20.2-9.2
					c-1.2-0.7-3.1-1.4-3.9-2.6c-1.3-1.8-1.4-5.1-1.8-7.2c-1.5-8.5-2.6-17-3.6-25.6c-0.2-1.3-0.3-2.6-0.5-3.9c0-0.3,0-0.6-0.1-0.9
					c-0.1-0.5,0.1,0.2,0.1,0.1c-1.1-1.7-2.8-3.3-4.1-4.8c-5.7-6.7-11.5-13.3-17.5-19.8c-2.3-2.4-4.6-5-7.1-7.2c-1-0.8-2.1-1.3-3-2.2
					c-1.7-1.6-2.9-3.8-3.9-5.9c-0.5-1.2-1-2.4-1.4-3.7c0.3,0,0.6,0,0.9,0c-1.1,2.8-2.1,5.6-3.2,8.3c-0.1,0.2-0.2,0.3-0.4,0.3
					c-2.5-0.1-4.9-0.3-7.4-0.4c0.1-0.3,0.2-0.6,0.2-0.9c3.2,2,6.7,3.9,9.5,6.3c2.1,1.8,3.9,3.8,5.8,5.8c6.3,6.5,12.6,13.1,18.5,20.1
					c1.3,1.6,3.1,3.4,3.7,5.5c0.8,2.8,1.1,5.9,1.5,8.8c1.4,9,2.5,18.1,4.5,27c0.3,1.6,0.7,3.2,1.2,4.7c0.2,0.7,0.5,1.8,1.1,2.3
					c1.1,0.8,3.1,1.2,4.3,1.8c7.1,2.9,14.2,5.8,21.3,8.7c8.6,3.5,17.2,7,25.9,10.4c3.4,1.3,6.8,2.6,10.2,3.9c1.9,0.7,3.9,1.5,5.9,2
					c1.7,0.4,3.1,0.7,4.6,1.7c0.9,0.6,1.8,1.4,2.8,1.8c1.6,0.7,3.2,0.2,4.7-0.4c2.9-1.2,5.5-3,8.5-4.2c1.6-0.7,3.1-0.8,4.1,0.9
					c1.4,2.4,1.1,5.8,0.4,8.4c-0.6,2.4-1.8,4.3-3.9,5.7c-1.9,1.3-4.2,2.1-6.4,2.9c-1.8,0.7-3,1.4-4.4,2.6c-1.1,0.9-3,1.2-4.3,1.5
					c-3,0.8-6,1.4-9.1,2c-8.8,1.8-17.6,3.3-26.4,4.9c-8.4,1.6-16.7,3.1-25,5.1c-2.6,0.6-5.4,1.3-7.9,2.3c-1.5,0.6-2.1,1.2-2.9,2.6
					c-3.3,6.4-5.9,13.3-8.7,20c-3.6,8.8-7.1,17.5-10.6,26.4c-1.3,3.3-2.6,6.6-3.9,9.9c-0.6,1.5-1,3.1-1.8,4.5
					c-0.9,1.6-2.5,3-3.7,4.2c-2.7,2.7-5.4,5.3-8.2,7.9c-6.9,6.4-13.9,12.6-20.9,18.8c-2.8,2.4-5.5,4.8-8.3,7.1
					c-1.5,1.2-3,2.6-4.7,3.5c-3.6,1.9-7.7,3-11.6,4.1c0-0.3,0-0.6,0-0.9c2.9,0.9,5.8,1.9,8.7,2.8c0.2,0.1,0.4,0.2,0.3,0.4
					c-0.1,1.9-0.3,3.8-0.4,5.8c-0.3-0.1-0.5-0.2-0.8-0.3c12.4-10.5,24.9-21,37.4-31.4c7-5.9,14-11.7,21.1-17.6
					c0.5-0.4,1.1-0.8,1.5-1.2c0,0-0.2,0.3,0,0c0.2-0.3,0.3-0.7,0.4-1.1c1.3-3.4,2.6-6.8,3.9-10.2c4.1-10.9,8.3-21.8,12.7-32.6
					c1.5-3.6,2.9-7.3,4.6-10.9c0.9-1.9,1.7-2.4,3.7-3.1c8.9-3.1,18.5-4.7,27.7-6.6c10.6-2.2,21.2-4.3,31.8-6.2
					c2.3-0.4,4.6-0.9,6.9-1.3c1.3-0.2,2.5-0.3,3.8-0.6c1.5-0.3,2.9-0.6,4.3-1.1c1.7-0.6,2.3-1.2,3.4-2.5c1.6-1.7,4.4-1.4,5.5,0.7
					c1.1,2,0.3,3.7-1.2,5.2c-2.1,2.2-4.7,3.9-7.2,5.6c-2.2,1.5-4.6,3-6,5.3c-0.8,1.2-1.9,2.2-3,3.1c-2.6,2.2-5.2,4.4-7.9,6.5
					c-8.4,6.7-17,13.3-25.5,19.9c-9.6,7.5-19.2,15-28.7,22.6c-7,5.6-14,11.1-20.5,17.3c-1.2,1.1-3,2.5-3.5,4.1
					c-0.9,2.5-0.8,5.8-1,8.4c-1,11.6-1.7,23.2-2.1,34.8c-0.2,5.5-0.4,11-0.4,16.5c0,3.2-0.2,6.7,0.5,9.8c0.4,1.9-0.5,3.2-1.6,4.8
					c-2.3,3.4-5.1,6.5-7.8,9.5c-7.9,8.8-16.3,17.1-24.8,25.3c-6,5.8-12,12-18.7,17.2c-1.1,0.9-2.4,1.4-3.8,1.9c-2.5,1-5.1,2-7.7,2.8
					c0-0.3,0-0.6,0-0.9c1.3,0.5,2.7,1,4,1.5c1.6,0.6,3.6,1,5,1.8c0.9,0.5,1.4,1.7,2,2.5c1,1.4,2,2.8,3,4.1c-0.3,0-0.5,0-0.8,0
					c1.1-2.3,2.2-4.6,3.3-6.9c0.4-0.9,0.7-1.7,1.4-2.3c2.4-2.4,5.1-4.5,7.6-6.8c9.8-8.8,19.6-17.7,29.2-26.7
					c4.3-4.1,8.7-8.2,12.8-12.5c1.9-2,4.9-4.3,5.8-7c1.3-3.9,1-8.7,1.2-12.8c0.3-6.9,0.4-13.8,0.5-20.7c0.1-7.1,0.2-14.1,0.3-21.2
					c0.1-4.7,0.1-9.5,0.6-14.2c0.2-2.1,1-3.1,2.5-4.6c2.8-2.8,5.9-5.4,8.9-8c9.9-8.4,20-16.6,30.1-24.7c9.8-7.8,19.7-15.6,29.8-23.1
					c2.9-2.2,5.8-4.4,8.8-6.3c0.7-0.4,1.3-0.8,2-1.1c2.3-0.9,4-2.6,6-4.2c1.1-0.9,2.3-2,3.8-2.1c2.4-0.2,4-1,5.7-2.8
					c0.9-0.9,1.6-1.8,2.2-2.9c0.4-0.9,0.5-1.8,0.8-2.6c0.6-1.5,2.9-3.6,4.1-1.3c0.8,1.5,0.3,3.6,0,5.2c-0.3,1.9-0.8,3.6-1.7,5.3
					c-2.4,4.4-6.1,8.1-9.7,11.4c-0.3,0.3-1.6,1.3-1.6,1.7c0,0.6,2,0.8,2.5,0.9c1.7,0.4,3.3,0.9,4.9,1.5c0.4,0.1,0.5,0.8,0,0.9
					c-3.9,1-7.7,3.4-10.2,6.5c-3.2,4-3.9,9.8-4.2,14.7c-0.3,5-0.2,10.9,2.2,15.4c1.2,2.2,3.4,3.7,5.4,5.1c2.6,1.9,5.3,3.6,7.9,5.4
					c2.3,1.5,4.7,3.1,6.7,5c1.7,1.6,3.1,4.3,5.8,3.9c0.6-0.1,0.6,0.9,0,0.9c-2,0.2-3.9-1.1-5.1-2.6c-1.8-2.1-3.9-3.7-6.2-5.3
					c-2.9-2-5.9-3.9-8.8-5.9c-2.1-1.5-4.5-3-6-5.1c-2.9-4.2-3.1-10.3-3-15.2c0.1-5,0.6-10.8,3.1-15.2c2.5-4.3,7.2-7.4,11.9-8.7
					c0,0.3,0,0.6,0,0.9c-1.6-0.6-3.3-1.1-4.9-1.5c-0.8-0.2-2.8-0.3-3.2-1.3c-0.3-0.9,0.7-1.7,1.3-2.2c1.8-1.8,3.7-3.4,5.4-5.3
					c3.3-3.9,6-7.6,6.6-12.8c0.1-0.9,0.5-2.9-0.3-3.6c-0.8-0.6-1.5,0.3-1.9,1c-0.4,0.7-0.5,1.6-0.8,2.4c-0.3,0.9-0.9,1.8-1.4,2.6
					c-1.1,1.5-2.6,2.9-4.3,3.8c-1.4,0.8-3,0.4-4.4,1.1c-1.9,1-3.4,2.8-5.1,4c-1.2,0.9-2.4,1.4-3.7,2c-2.1,0.9-4.2,2.7-6.1,4.1
					c-9.3,6.8-18.4,13.9-27.4,21c-10.6,8.3-21,16.8-31.4,25.4c-3.8,3.1-7.5,6.3-11.2,9.6c-1.5,1.3-4,3.1-4.8,4.9
					c-0.5,1-0.4,2.5-0.5,3.5c-0.2,2.3-0.3,4.6-0.3,6.9c-0.2,6.5-0.3,13.1-0.4,19.6c-0.2,12.4,0.2,25.1-1.3,37.4
					c-0.3,2.8-0.9,4.5-2.7,6.5c-3.1,3.6-6.5,6.9-9.9,10.2c-9.7,9.4-19.6,18.4-29.6,27.5c-3.7,3.3-7.4,6.7-11.1,10
					c-0.9,0.8-1.9,1.6-2.8,2.5c-0.7,0.7-0.9,1.4-1.4,2.5c-1.1,2.2-2.1,4.4-3.1,6.6c-0.2,0.3-0.6,0.3-0.8,0c-0.9-1.2-1.8-2.4-2.6-3.6
					c-0.5-0.7-1.1-1.5-1.6-2.2c-0.1-0.1-0.2-0.3-0.3-0.5c0.3,0.3,0.2,0.2-0.1,0.1c-2.9-1-5.9-2.2-8.8-3.3c-0.4-0.2-0.4-0.7,0-0.9
					c3.8-1.2,8.3-2.3,11.5-4.9c2.7-2.1,5.2-4.5,7.7-6.8c8.3-7.6,16.4-15.5,24.3-23.6c3.9-4,7.8-8.1,11.6-12.3
					c2.6-2.9,5.3-5.9,7.5-9.2c0.5-0.8,1.3-1.8,1.4-2.8c0-0.6-0.3-1.3-0.4-1.9c-0.5-3.6-0.4-7.3-0.3-10.9c0.1-11.7,0.8-23.4,1.5-35.1
					c0.3-5.1,0.7-10.2,1.1-15.4c0.2-2.4,0.1-5.3,0.9-7.6c0.5-1.6,2.1-2.9,3.3-4c2.6-2.5,5.4-4.9,8.1-7.2
					c8.2-6.9,16.6-13.6,25.1-20.2c16.2-12.7,32.9-25,48.6-38.3c1.3-1.1,3-2.2,3.9-3.6c0.7-1.1,1.7-2.3,2.9-3.3
					c2.4-1.9,5-3.5,7.4-5.4c1.9-1.4,5.7-3.9,4.1-6.8c-1.3-2.3-3.4-1.3-4.6,0.2c-0.6,0.8-1.5,1.2-2.4,1.6c-3,1.3-6.7,1.6-9.5,2.1
					c-18.9,3.5-37.9,7-56.6,11.5c-3.4,0.8-6.8,1.6-10,2.8c-2,0.8-2.4,2.3-3.2,4.2c-4.3,9.6-8,19.5-11.8,29.3
					c-2,5.1-3.9,10.1-5.8,15.2c-1,2.7-1.8,5.6-3.1,8.2c-0.5,1-1.6,1.7-2.5,2.4c-3,2.5-6,5-9,7.5c-13.2,11.1-26.5,22.1-39.7,33.2
					c-3,2.5-6,5.1-9,7.6c-0.3,0.2-0.8,0.1-0.8-0.3c0.1-1.3,0.2-2.5,0.3-3.8c0-0.6,0-1.2,0.1-1.8c0-0.2,0.6,0.3,0.2,0.3
					c-0.2,0-0.4-0.1-0.6-0.2c-2.6-0.8-5.3-1.7-7.9-2.5c-0.4-0.1-0.4-0.8,0-0.9c4-1.1,8.5-2.1,12-4.3c1.7-1,3.1-2.4,4.6-3.7
					c6.4-5.4,12.8-11,19-16.7c6.1-5.5,12.2-11,18-16.8c1.1-1.1,2.6-2.4,3.3-3.8c0.9-1.8,1.5-3.7,2.2-5.5c6.3-16,12.5-32,19.3-47.7
					c1.1-2.5,2.2-5.1,3.5-7.6c0.7-1.3,1.3-2,2.6-2.6c5.5-2.4,12-3.4,17.9-4.6c16.5-3.4,33.2-5.7,49.6-9.6c1.6-0.4,3.9-0.6,5.3-1.6
					c0.8-0.5,1.4-1.3,2.3-1.8c2-1.1,4.3-1.7,6.4-2.6c2.9-1.3,5-3,5.9-6.1c0.6-2,1.6-10.1-2.5-8.8c-2.9,0.9-5.4,2.8-8.1,4
					c-1.9,0.9-4.1,1.8-6.1,0.9c-1.1-0.4-2-1.2-3-1.9c-1.3-0.9-2.5-1.4-4-1.7c-0.6-0.1-1.1-0.3-1.7-0.4c-2.5-0.8-4.9-1.7-7.2-2.6
					c-7.9-3-15.8-6.2-23.6-9.3c-8.1-3.3-16.3-6.6-24.4-9.9c-2.7-1.1-5.5-2.2-8.2-3.4c-1-0.4-2.7-0.8-3.5-1.6
					c-1.5-1.5-1.9-4.8-2.3-6.7c-1-4.3-1.7-8.6-2.4-13c-1.2-7.6-1.8-15.4-3.6-22.9c-0.5-2.2-2.3-3.9-3.7-5.6c-2.9-3.4-5.9-6.7-8.9-10
					c-3.1-3.4-6.3-6.7-9.5-10c-1.9-1.9-3.7-4-5.8-5.8c-2.8-2.4-6.2-4.3-9.4-6.2c-0.4-0.2-0.2-0.9,0.2-0.9c1.4,0.1,2.8,0.2,4.2,0.2
					c0.8,0,1.7,0,2.5,0.1c0.2,0,0.4,0,0.5,0c-0.8-0.1-0.3,0.6-0.3,0.1c0-0.5,0.5-1.3,0.6-1.7c0.4-0.9,0.7-1.8,1-2.8
					c0.5-1.2,0.9-2.4,1.4-3.6c0.2-0.4,0.8-0.5,0.9,0c1.2,3.8,3.1,8,6.5,10.3c2,1.3,3.6,3,5.2,4.6c6.1,6.2,11.8,12.8,17.4,19.3
					c2.1,2.4,4.2,4.9,6.3,7.4c0.7,0.8,1.4,1.4,1.5,2.5c1,7.3,1.8,14.6,2.9,21.9c0.6,3.9,1.1,7.8,2,11.6c0.4,1.7,0.5,3.1,2,4.1
					c5,3.4,11,5.6,16.5,8.1c8.3,3.6,16.6,7,25.1,10c6,2.2,12.6,4.9,19,5.4c0.6,0.1,1.5,0.2,2.1-0.1c0.3-0.1,0.5-0.5,0.7-0.7
					c0.6-0.6,1.3-0.9,2.1-1.2c2.1-0.7,4.4-0.7,6.5-0.7c1.8,0,4.6,0.3,6.1-0.8c0.6-0.5,0.6-1.2,0.9-1.8c0.3-0.6,0.7-1.1,1.1-1.7
					c1.3-1.6,2.9-2.9,4.5-4.1c3.3-2.6,6.7-4.9,10.3-7.1c0.7-0.4,1.4-0.8,2-1.2c0.5-0.3,0.9,0.5,0.5,0.8c-4.9,3.6-11.4,4-17.1,2.2
					c-6-1.9-10.7-6.4-14.1-11.5c-3.6-5.5-7-12.8-6.6-19.5c0.2-3.5,1.3-7,2.4-10.4c1-3.3,2.1-6.5,3.5-9.6c3-6.9,7.1-13.3,13-18.2
					c0,0.2,0,0.4,0,0.7c-6-6.4-8.8-15.7-6.9-24.3c1.8-8.2,7.6-15.3,15.2-18.8c0.4-0.2,0.8,0.2,0.6,0.6c-3.4,6.9-0.3,15.1,6.8,18
					c0.3,0.1,0.5,0.4,0.3,0.7c-2.4,3.3-2.1,7.7,0.1,11c2.3,3.3,6.1,5.1,10,5.9C310.8,37.3,310.5,38.2,309.9,38.1L309.9,38.1z"/>
			</g>
		</g>
		<g>
			<path class="st4" d="M-153.8,188.7c928.3,0,928.3,0,928.3,0"/>
			<g>
				<path class="st5" d="M310.8,38.1c4.3-0.9,8.5-3,10.9-6.8c2.1-3.5,2.2-8.1-0.2-11.4c-0.1,0.2-0.2,0.4-0.3,0.7
					c7.7-3.1,11.1-11.8,7.4-19.3c-0.2,0.2-0.4,0.4-0.6,0.6c7.2,3.3,12.8,9.9,14.6,17.7c2,8.5-0.6,17.7-6.5,24
					c-0.2,0.2-0.2,0.5,0,0.7c9.6,7.9,14.4,20.1,17.6,31.8c1,3.9,1.4,7.6,0.5,11.6c-0.8,3.3-2.1,6.4-3.7,9.4
					c-2.8,5.4-6.9,10.5-12.3,13.4c-6.2,3.3-14,3.5-19.8-0.6c-0.2,0.3-0.3,0.5-0.5,0.8c2.5,1.5,4.9,3.1,7.3,4.7
					c2.1,1.4,4.1,2.9,6,4.5c1.4,1.2,3,2.5,3.9,4.1c0.6,1.2,0.5,2.3,1.9,2.9c1.7,0.8,3.9,0.7,5.7,0.7c2.3,0,5-0.1,7.1,0.9
					c1,0.4,1.5,1.5,2.5,1.8c1.7,0.5,3.9-0.1,5.5-0.5c3.3-0.7,6.6-1.8,9.9-2.8c8.5-2.8,16.8-6.1,25.1-9.5c6.8-2.9,13.7-5.7,20.2-9.2
					c1.2-0.7,3.1-1.4,3.9-2.6c1.3-1.8,1.4-5.1,1.8-7.2c1.5-8.5,2.6-17,3.6-25.6c0.2-1.3,0.3-2.6,0.5-3.9c0-0.3,0-0.6,0.1-0.9
					c0.1-0.5-0.2,0.2-0.1,0.1c1.1-1.7,2.8-3.3,4.1-4.8c5.7-6.7,11.5-13.3,17.5-19.8c2.3-2.4,4.6-5,7.1-7.2c1-0.8,2.1-1.3,3-2.2
					c1.7-1.6,2.9-3.8,3.9-5.9c0.5-1.2,1-2.4,1.4-3.7c-0.3,0-0.6,0-0.9,0c1.1,2.8,2.1,5.6,3.2,8.3c0.1,0.2,0.2,0.3,0.4,0.3
					c2.5-0.1,4.9-0.3,7.3-0.4c-0.1-0.3-0.2-0.6-0.2-0.9c-3.2,2-6.7,3.9-9.5,6.3c-2.1,1.8-3.9,3.8-5.8,5.8
					c-6.3,6.5-12.6,13.1-18.5,20.1c-1.3,1.6-3.1,3.4-3.7,5.5c-0.8,2.8-1.1,5.9-1.5,8.8c-1.4,9-2.5,18.1-4.5,27
					c-0.3,1.6-0.7,3.2-1.2,4.7c-0.2,0.7-0.5,1.8-1.1,2.3c-1.1,0.8-3.1,1.2-4.3,1.8c-7.1,2.9-14.2,5.8-21.3,8.7
					c-8.6,3.5-17.2,7-25.9,10.4c-3.4,1.3-6.8,2.6-10.2,3.9c-1.9,0.7-3.9,1.5-5.9,2c-1.7,0.4-3.1,0.7-4.6,1.7
					c-0.9,0.6-1.8,1.4-2.8,1.8c-1.6,0.7-3.2,0.2-4.7-0.4c-2.9-1.2-5.5-3-8.5-4.2c-1.6-0.7-3.1-0.8-4.1,0.9c-1.4,2.4-1.1,5.8-0.4,8.4
					c0.6,2.4,1.8,4.3,3.9,5.7c1.9,1.3,4.2,2.1,6.4,2.9c1.8,0.7,3,1.4,4.4,2.6c1.1,0.9,3,1.2,4.3,1.5c3,0.8,6,1.4,9.1,2
					c8.8,1.8,17.6,3.3,26.4,4.9c8.4,1.6,16.7,3.1,25,5.1c2.7,0.6,5.3,1.3,7.9,2.3c1.5,0.6,2.1,1.2,2.9,2.6c3.3,6.4,5.9,13.3,8.7,20
					c3.6,8.8,7.1,17.5,10.6,26.4c1.3,3.3,2.6,6.6,3.9,9.9c0.6,1.5,1,3.1,1.8,4.5c0.9,1.6,2.5,3,3.7,4.2c2.7,2.7,5.4,5.3,8.2,7.9
					c6.9,6.4,13.8,12.6,20.9,18.8c2.8,2.4,5.5,4.8,8.3,7.1c1.5,1.2,3,2.6,4.7,3.5c3.6,1.9,7.7,3,11.6,4.1c0-0.3,0-0.6,0-0.9
					c-2.9,0.9-5.8,1.9-8.7,2.8c-0.2,0.1-0.3,0.2-0.3,0.4c0.1,1.9,0.3,3.8,0.4,5.8c0.3-0.1,0.5-0.2,0.8-0.3
					c-12.4-10.5-24.9-21-37.4-31.4c-7-5.9-14-11.7-21.1-17.6c-0.5-0.4-1.1-0.8-1.5-1.2c0,0,0.2,0.3,0,0c-0.2-0.3-0.3-0.7-0.4-1.1
					c-1.3-3.4-2.6-6.8-3.9-10.2c-4.2-10.9-8.3-21.8-12.7-32.6c-1.5-3.6-2.9-7.3-4.7-10.9c-0.9-1.9-1.7-2.4-3.7-3.1
					c-8.9-3.1-18.5-4.7-27.7-6.6c-10.6-2.2-21.2-4.3-31.8-6.2c-2.3-0.4-4.6-0.9-6.9-1.3c-1.3-0.2-2.5-0.3-3.8-0.6
					c-1.5-0.3-2.9-0.6-4.3-1.1c-1.7-0.6-2.3-1.2-3.4-2.5c-1.6-1.7-4.4-1.4-5.5,0.7c-1.1,2-0.3,3.7,1.2,5.2c2.1,2.2,4.7,3.9,7.2,5.6
					c2.2,1.5,4.6,3,6,5.3c0.8,1.2,1.9,2.2,3,3.1c2.6,2.2,5.2,4.4,7.9,6.5c8.4,6.7,17,13.3,25.5,19.9c9.6,7.5,19.2,15,28.7,22.6
					c7,5.6,14,11.1,20.5,17.3c1.2,1.1,3,2.5,3.5,4.1c0.9,2.5,0.8,5.8,1,8.4c1,11.6,1.7,23.2,2.1,34.8c0.2,5.5,0.4,11,0.4,16.5
					c0,3.2,0.2,6.7-0.5,9.8c-0.4,1.9,0.5,3.2,1.6,4.8c2.3,3.4,5.1,6.5,7.8,9.5c7.9,8.8,16.3,17.1,24.8,25.3c6,5.8,12,12,18.7,17.2
					c1.1,0.9,2.4,1.4,3.8,1.9c2.5,1,5.1,2,7.7,2.8c0-0.3,0-0.6,0-0.9c-1.3,0.5-2.7,1-4,1.5c-1.6,0.6-3.6,1-5,1.8
					c-0.9,0.5-1.4,1.7-2,2.5c-1,1.4-2,2.8-3,4.1c0.3,0,0.5,0,0.8,0c-1.1-2.3-2.2-4.6-3.3-6.9c-0.4-0.9-0.7-1.7-1.4-2.3
					c-2.4-2.4-5.1-4.5-7.6-6.8c-9.8-8.8-19.6-17.7-29.2-26.7c-4.3-4.1-8.7-8.2-12.8-12.5c-1.9-2-4.9-4.3-5.8-7
					c-1.3-3.9-1-8.7-1.2-12.8c-0.3-6.9-0.4-13.8-0.5-20.7c-0.1-7.1-0.2-14.1-0.3-21.2c-0.1-4.7-0.1-9.5-0.6-14.2
					c-0.2-2.1-1-3.1-2.5-4.6c-2.8-2.8-5.9-5.4-8.9-8c-9.9-8.4-20-16.6-30.1-24.7c-9.8-7.8-19.7-15.6-29.8-23.1
					c-2.9-2.2-5.8-4.4-8.8-6.3c-0.7-0.4-1.3-0.8-2-1.1c-2.3-0.9-4-2.6-6-4.2c-1.1-0.9-2.3-2-3.8-2.1c-2.4-0.2-4-1-5.7-2.8
					c-0.9-0.9-1.6-1.8-2.2-2.9c-0.4-0.9-0.5-1.8-0.8-2.6c-0.6-1.5-2.9-3.6-4.1-1.3c-0.8,1.5-0.3,3.6,0,5.2c0.3,1.9,0.8,3.6,1.7,5.3
					c2.4,4.4,6.1,8.1,9.7,11.4c0.3,0.3,1.6,1.3,1.6,1.7c0,0.6-2,0.8-2.5,0.9c-1.7,0.4-3.3,0.9-4.9,1.5c-0.4,0.1-0.5,0.8,0,0.9
					c3.9,1,7.7,3.4,10.2,6.5c3.2,4,3.9,9.8,4.2,14.7c0.3,5,0.2,10.9-2.2,15.4c-1.2,2.2-3.4,3.7-5.4,5.1c-2.6,1.9-5.3,3.6-7.9,5.4
					c-2.3,1.5-4.7,3.1-6.7,5c-1.7,1.6-3.1,4.3-5.8,3.9c-0.6-0.1-0.6,0.9,0,0.9c2,0.2,3.9-1.1,5.1-2.6c1.8-2.1,3.9-3.7,6.2-5.3
					c2.9-2,5.9-3.9,8.8-5.9c2.1-1.5,4.5-3,6-5.1c2.9-4.2,3.1-10.3,3-15.2c-0.1-5-0.6-10.8-3.1-15.2c-2.5-4.3-7.2-7.4-11.9-8.7
					c0,0.3,0,0.6,0,0.9c1.6-0.6,3.3-1.1,4.9-1.5c0.8-0.2,2.8-0.3,3.2-1.3c0.3-0.9-0.7-1.7-1.3-2.2c-1.8-1.8-3.7-3.4-5.4-5.3
					c-3.3-3.9-6-7.6-6.6-12.8c-0.1-0.9-0.5-2.9,0.3-3.6c0.8-0.6,1.5,0.3,1.9,1c0.4,0.7,0.5,1.6,0.8,2.4c0.3,0.9,0.9,1.8,1.4,2.6
					c1.1,1.5,2.6,2.9,4.3,3.8c1.4,0.8,3,0.4,4.4,1.1c1.9,1,3.4,2.8,5.1,4c1.2,0.9,2.4,1.4,3.7,2c2.1,0.9,4.2,2.7,6.1,4.1
					c9.3,6.8,18.4,13.9,27.4,21c10.6,8.3,21,16.8,31.4,25.4c3.8,3.1,7.5,6.3,11.2,9.6c1.5,1.3,4,3.1,4.8,4.9c0.5,1,0.4,2.5,0.5,3.5
					c0.2,2.3,0.3,4.6,0.3,6.9c0.2,6.5,0.3,13.1,0.4,19.6c0.2,12.4-0.2,25.1,1.3,37.4c0.3,2.8,0.9,4.5,2.7,6.5
					c3.1,3.6,6.5,6.9,9.9,10.2c9.7,9.4,19.6,18.4,29.6,27.5c3.7,3.3,7.4,6.7,11.1,10c0.9,0.8,1.8,1.6,2.8,2.5
					c0.7,0.7,0.9,1.4,1.4,2.5c1,2.2,2.1,4.4,3.1,6.6c0.2,0.3,0.6,0.3,0.8,0c0.9-1.2,1.8-2.4,2.6-3.6c0.5-0.7,1.1-1.5,1.6-2.2
					c0.1-0.1,0.2-0.3,0.3-0.5c-0.3,0.3-0.2,0.2,0.1,0.1c2.9-1,5.9-2.2,8.8-3.3c0.4-0.2,0.5-0.7,0-0.9c-3.8-1.2-8.3-2.3-11.5-4.9
					c-2.7-2.1-5.2-4.5-7.7-6.8c-8.3-7.6-16.4-15.5-24.3-23.6c-3.9-4-7.8-8.1-11.6-12.3c-2.6-2.9-5.3-5.9-7.5-9.2
					c-0.5-0.8-1.3-1.8-1.4-2.8c0-0.6,0.3-1.3,0.4-1.9c0.5-3.6,0.4-7.3,0.3-10.9c-0.1-11.7-0.8-23.4-1.5-35.1
					c-0.3-5.1-0.7-10.2-1.2-15.4c-0.2-2.4-0.2-5.3-0.9-7.6c-0.5-1.6-2.2-2.9-3.3-4c-2.6-2.5-5.3-4.9-8.1-7.2
					c-8.2-6.9-16.6-13.6-25.1-20.2c-16.2-12.7-32.9-25-48.6-38.3c-1.3-1.1-3-2.2-3.9-3.6c-0.7-1.1-1.7-2.3-2.9-3.3
					c-2.4-1.9-5-3.5-7.4-5.4c-1.9-1.4-5.7-3.9-4.1-6.8c1.3-2.3,3.4-1.3,4.6,0.2c0.6,0.8,1.5,1.2,2.4,1.6c3,1.3,6.7,1.6,9.5,2.1
					c18.9,3.5,37.9,7,56.6,11.5c3.3,0.8,6.8,1.6,10,2.8c2,0.8,2.4,2.3,3.2,4.2c4.3,9.6,8,19.5,11.8,29.3c2,5.1,3.9,10.1,5.8,15.2
					c1,2.7,1.8,5.6,3.1,8.2c0.5,1,1.6,1.7,2.5,2.4c3,2.5,6,5,9,7.5c13.2,11.1,26.5,22.1,39.7,33.2c3,2.5,6,5.1,9,7.6
					c0.3,0.2,0.8,0.1,0.8-0.3c-0.1-1.3-0.2-2.5-0.3-3.8c0-0.6,0-1.2-0.1-1.8c0-0.2-0.6,0.3-0.2,0.3c0.2,0,0.4-0.1,0.6-0.2
					c2.7-0.8,5.3-1.7,8-2.5c0.4-0.1,0.5-0.8,0-0.9c-4-1.1-8.5-2.1-12-4.3c-1.7-1-3.1-2.4-4.6-3.7c-6.5-5.4-12.8-11-19-16.7
					c-6.1-5.5-12.2-11-18-16.8c-1.1-1.1-2.6-2.4-3.3-3.8c-0.9-1.8-1.5-3.7-2.2-5.5c-6.3-16-12.5-32-19.3-47.7
					c-1.1-2.5-2.2-5.1-3.5-7.6c-0.7-1.3-1.3-2-2.6-2.6c-5.5-2.4-12-3.4-17.9-4.6c-16.5-3.4-33.2-5.7-49.6-9.6
					c-1.6-0.4-3.9-0.6-5.3-1.6c-0.8-0.5-1.4-1.3-2.3-1.8c-2-1.1-4.3-1.7-6.4-2.6c-2.9-1.3-5-3-5.9-6.1c-0.6-2-1.6-10.1,2.5-8.8
					c2.9,0.9,5.4,2.8,8.1,4c1.9,0.9,4.1,1.8,6.1,0.9c1.1-0.4,2-1.2,3-1.9c1.3-0.9,2.5-1.4,4-1.7c0.6-0.1,1.1-0.3,1.7-0.4
					c2.5-0.8,4.9-1.7,7.3-2.6c7.9-3,15.8-6.2,23.6-9.3c8.1-3.3,16.3-6.6,24.4-9.9c2.7-1.1,5.5-2.2,8.2-3.4c1-0.4,2.7-0.8,3.5-1.6
					c1.5-1.5,1.9-4.8,2.3-6.7c1-4.3,1.7-8.6,2.4-13c1.2-7.6,1.8-15.4,3.6-22.9c0.5-2.2,2.3-3.9,3.7-5.6c2.9-3.4,5.9-6.7,8.9-10
					c3.1-3.4,6.3-6.7,9.5-10c1.9-1.9,3.7-4,5.8-5.8c2.8-2.4,6.2-4.3,9.4-6.2c0.4-0.2,0.2-0.9-0.2-0.9c-1.4,0.1-2.8,0.2-4.2,0.2
					c-0.8,0-1.7,0-2.5,0.1c-0.2,0-0.4,0-0.5,0c0.8-0.1,0.3,0.6,0.3,0.1c0-0.5-0.5-1.3-0.7-1.7c-0.3-0.9-0.7-1.8-1-2.8
					c-0.5-1.2-0.9-2.4-1.4-3.6c-0.2-0.4-0.8-0.5-0.9,0c-1.2,3.8-3.1,8-6.5,10.3c-2,1.3-3.6,3-5.2,4.6c-6.1,6.2-11.8,12.8-17.4,19.3
					c-2.1,2.4-4.2,4.9-6.3,7.4c-0.7,0.8-1.4,1.4-1.5,2.5c-1,7.3-1.8,14.6-2.9,21.9c-0.6,3.9-1.2,7.8-2,11.6c-0.4,1.7-0.5,3.1-2,4.1
					c-5,3.4-11,5.6-16.5,8.1c-8.3,3.6-16.6,7-25.1,10c-6,2.2-12.6,4.9-19,5.4c-0.6,0.1-1.5,0.2-2.1-0.1c-0.3-0.1-0.5-0.5-0.7-0.7
					c-0.6-0.6-1.3-0.9-2.1-1.2c-2.1-0.7-4.4-0.7-6.5-0.7c-1.8,0-4.6,0.3-6.1-0.8c-0.6-0.5-0.6-1.2-0.9-1.8c-0.3-0.6-0.7-1.1-1.1-1.7
					c-1.3-1.6-2.9-2.9-4.5-4.1c-3.3-2.6-6.7-4.9-10.3-7.1c-0.7-0.4-1.4-0.8-2-1.2c-0.5-0.3-0.9,0.5-0.5,0.8c4.9,3.6,11.4,4,17.1,2.2
					c6-1.9,10.7-6.4,14.1-11.5c3.6-5.5,7-12.8,6.6-19.5c-0.2-3.5-1.3-7-2.4-10.4c-1-3.3-2.1-6.5-3.5-9.6c-3-6.9-7.1-13.3-13-18.2
					c0,0.2,0,0.4,0,0.7c6-6.4,8.8-15.7,6.9-24.3c-1.8-8.2-7.6-15.3-15.2-18.8c-0.4-0.2-0.8,0.2-0.6,0.6c3.4,6.9,0.3,15.1-6.8,18
					c-0.3,0.1-0.5,0.4-0.3,0.7c2.4,3.3,2.1,7.7-0.1,11c-2.3,3.3-6.1,5.1-10,5.9C310,37.3,310.2,38.2,310.8,38.1L310.8,38.1z"/>
			</g>
		</g>
	</g>
</g>
<g id="Stick" class="st0">
	<g id="Stick_1_" class="st1">
		<g>
			<g>
				<path class="st3" d="M169.2,189.5c0.2,2.1,1,3.9,2.2,5.6c0.3,0.4-0.1,0.9-0.5,0.9c-16-0.1-31.8,2.5-47.2,6.3
					c-13.9,3.4-27.7,7.6-41.2,12.4c-25.8,9.1-50.8,20.9-73.3,36.5c-12.6,8.8-24.4,18.7-35,29.9c-0.5,0.5-1.3-0.3-0.8-0.8
					c18.9-20.1,41.7-36,66.2-48.5c24.9-12.7,51.5-22.1,78.5-29.2c17.3-4.5,34.9-7.8,52.8-7.6c-0.2,0.3-0.3,0.6-0.5,0.9
					c-1.3-1.9-2.2-3.8-2.4-6.2C168,188.7,169.1,188.7,169.2,189.5L169.2,189.5z"/>
			</g>
			<g>
				<path class="st3" d="M171.4,195c1.5,2,2.7,4.7,2.9,7.2c0.1,1,0,1.7-0.2,2.7c-0.6,3.1,0.8,6.1,4.2,7c2.2,0.5,4.6-0.4,6.3-1.8
					c1.3-1.1,1.7-2.5,2.8-3.7c1.7-1.8,4.9-1.2,7.2-1.2c3.6-0.1,7.3-0.3,10.9-0.3c0.4,0,0.8-0.1,1.1,0c1.3,0.3,1.7,1.2,1.3,2.5
					c-0.9,3.6-5.4,6.9-7.9,9.3c-2.8,2.6-5.5,5.2-8.2,7.8c-7.1,6.9-14.2,13.8-21.2,20.8c-6.3,6.2-12.6,12.5-18.8,18.8
					c-2.8,2.9-5,6-8.8,7.5c-6.2,2.4-13,3.6-19.5,4.9c-8.4,1.7-16.9,3.1-25.4,4.5c-6.7,1.1-13.3,2.1-20,3c-1.1,0.1-1.7,0.4-2.7,0
					c-3.1-1.2-6.1-3.6-9.1-5.3c0.3-0.2,0.6-0.4,0.8-0.6c0.6,2.6,1.9,5.8,1.9,8.5c0,2.6-1.3,5.7-1.9,8.2c-0.3-0.2-0.6-0.4-0.8-0.6
					c3.8-2.1,7.4-5,11.8-5.4c6.7-0.6,13.4-1.2,20.1-1.8c9.6-0.9,19.1-1.9,28.7-3c7.2-0.9,14.6-1.5,21.6-3.3c3.2-0.8,4.9-3.3,7.2-5.7
					c5.4-5.5,10.8-11.1,16.1-16.6c12.7-13,25.4-26.1,38.4-38.8c2.6-2.6,5.3-5.9,8.7-7.4c2.4-1,4.4-2.9,6.8-3.7
					c2.4-0.8,5.2-0.3,7.7-0.9c1.7-0.4,3.4-1,4.8-2c0.5-0.3,0.9-0.9,1.5-1.2c0.7-0.3,1.5-0.4,2.2-0.4c7.4-0.5,15.2,1.2,22.4,2.4
					c9.3,1.5,18.5,3.3,27.6,5.5c2.7,0.7,5.5,1.3,8.1,2.3c2.9,1.2,3.3,4.3,3,7.2c-0.5,3.6-2.3,7.1-3.6,10.4
					c-6.2,16.3-12.4,32.6-18.6,48.9c-1.1,2.8-2.2,5.7-3.2,8.5c-0.5,1.2-0.8,2.7-1.4,3.8c-0.7,1.1-1.9,2-2.8,2.9
					c-2.9,2.8-5.7,5.5-8.6,8.3c-5.9,5.7-11.7,11.3-17.6,17c-1.5,1.4-2,2-4.1,2.6c-1.2,0.3-2.5,0.6-3.8,0.8c-0.7,0.1-1.8-0.1-2.4,0.1
					c-0.8,0.3-0.2-0.4-0.2-0.1c0,0.3,0.8,1,1,1.3c0.6,0.7,1.6,1.3,2,2.1c1.1,1.9,0.4,5.8,0.4,8c-0.3-0.1-0.6-0.3-1-0.4
					c10.3-9.5,21.3-18,32.2-26.8c3.5-2.8,7.1-5.7,10.6-8.5c1.6-1.3,3.9-2.6,5.1-4.3c0.5-0.8,1-2.8,1.4-3.9c1.2-3.3,2.3-6.6,3.4-9.9
					c6-17.4,11.8-34.8,17.9-52.1c0.6-1.8,1.1-3.8,2-5.5c1.5-3,5-5.3,7.7-7.1c3.8-2.7,7.9-4.9,12.6-4.6c4.5,0.3,9.1,0.9,13.6,1.6
					c5.5,0.8,11,1.7,16.5,3c3,0.7,7.2,1.2,9.6,3.3c1.2,1,2,2.5,2.9,3.7c1.9,2.6,3.8,5.3,5.6,7.9c11.1,15.8,22,31.7,32.8,47.7
					c2,2.9,3.9,5.8,5.8,8.6c0.9,1.3,1.7,3,2.7,4.2c0.3,0.3-0.2-0.1,0.3,0.3c0.4,0.3,0.9,0.4,1.3,0.6c1.8,0.8,3.7,1.6,5.5,2.4
					c15,6.2,30,12,45.1,17.9c17.7,6.9,35.3,13.7,53,20.6c5.8,2.2,11.5,4.4,17.3,6.7c2.7,1,4.6,1.5,6.6,3.6c2.5,2.6,5,5.2,7.5,7.8
					c-0.3,0.1-0.6,0.2-1,0.3c0.2-1.3,0.4-2.5,0.7-3.8c0.2-1,0.1-2.6,0.7-3.5c0.5-0.8,2-1.6,2.8-2.2c1.1-0.8,2.1-1.6,3.2-2.5
					c0.1,0.3,0.2,0.6,0.3,1c-10.8-3.7-21.2-7.9-31.7-12.2c-20.3-8.3-40.6-16.7-60.9-25c-14.2-5.8-28.4-11.5-42.5-17.4
					c-2.6-1.1-4.1-5-5.7-7.2c-5.7-8.5-11.3-17-17-25.6c-5.8-8.8-11.5-17.5-17.1-26.5c-1.5-2.3-3.1-4.7-4.2-7.2
					c-0.2-0.5-0.5-0.9-0.4-1.5c0.1-0.5,0.6-1.3,0.9-1.8c0.6-1.5,1.3-3,2-4.4c1.3-2.3,3-4.6,5.6-5.4c1.8-0.5,3.8-0.8,5.6-1.1
					c5.9-1.1,11.8-2.2,17.8-3.2c6.7-1.2,13.2-1.9,20-2.5c5.8-0.5,11.5-1,17.2-1.6c2.8-0.3,5.5-0.8,8.3-1c10.1-0.5,20.3,0.3,30.4-0.8
					c3.7-0.4,7.7,0.5,11.4,1c5.8,0.8,11.6,1.8,17.4,2.1c2.9,0.1,5.4-0.9,8.4-1.1c5.8-0.4,11.6-0.3,17.4-0.5c2.4-0.1,4.9-0.1,7.3-0.6
					c1.1-0.2,1.8-0.9,2.8-1.1c1.8-0.4,4-0.1,5.9,0.1c3,0.3,6.1,0.6,9.1,0.9c2.8,0.2,5.7,0.5,8.5,0.3c2-0.1,2.9-1,4.6-1.7
					c2.1-0.9,4.8-0.6,6.9-0.5c3.2,0.2,6.3,0.6,9.5,0.9c2.3,0.3,5.1,0.9,7.5,0.4c1.6-0.4,2.6-0.8,4.4-0.5c2.8,0.4,5.5,1.3,8.3,1.9
					c1.1,0.2,2.7,0.8,3.8,0.5c0.9-0.2,1.1-0.9,1.9-1.4c2-1.2,5-0.8,7.3-1c1.8-0.2,2.6-0.5,3.8-1.7c0.5-0.6,0.7-1,1.6-1.1
					c2.2-0.3,3.2,2.1,4.9,2.6c-0.9-0.2,0-0.4,0.5-0.8c0.3-0.2,0.7-0.6,1.1-0.7c0.6-0.2,1.3,0.1,1.9,0.3c1.1,0.2,2.2,0.5,3.3,0.7
					c0.5,0.1-0.5,0.6-0.2,0c0.2-0.4,0.4-0.8,0.5-1.2c0.9-2,1.8-4,2.8-5.9c0.3-0.7,1.3-0.1,1,0.6c-1.2,2.5-2.3,4.9-3.5,7.4
					c-0.1,0.2-0.4,0.3-0.6,0.3c-1.4-0.3-2.8-0.5-4.1-0.9c-1.2-0.3-1.4,0.3-2.8,1.1c-0.2,0.1-0.5,0.1-0.7-0.1
					c-0.7-0.6-1.4-1.2-2.2-1.6c-1.7-0.9-2.3,0.1-3.5,1.1c-1.5,1.3-4.2,1.1-6,1.3c-1.3,0.1-3,0-4.2,0.5c-0.8,0.3-1,1-1.8,1.4
					c-1.4,0.7-3.6,0.1-5-0.2c-2.7-0.6-5.4-1.4-8.1-1.9c-1.9-0.3-3,0.2-4.8,0.5c-5.1,0.8-10.8-0.9-15.9-1.3c-2.3-0.2-5.3-0.6-7.5,0.4
					c-1.4,0.6-2.2,1.4-3.8,1.6c-5.2,0.8-10.7-0.3-15.9-0.8c-2.4-0.2-4.8-0.5-7.2-0.5c-1.3,0-1.9,0.4-3,0.9c-3.6,1.5-8.8,1-12.6,1
					c-5.1,0.1-10.3-0.1-15.4,0.6c-1.1,0.1-2,0.6-3.1,0.8c-1.5,0.4-3.3,0.1-4.8,0c-5.5-0.4-10.9-1.3-16.3-2c-3.6-0.5-7.5-1.3-11.2-1
					c-9.6,1-19.4,0.3-29,0.7c-7.5,0.3-15.2,1.6-22.7,2.3c-6.7,0.6-13.2,0.9-19.5,2c-5.5,1-10.9,1.9-16.3,2.9
					c-2.6,0.5-5.1,0.9-7.7,1.4c-2.2,0.4-4.5,0.6-6.2,2.3c-2.2,2.1-3.3,5.2-4.5,8c-0.2,0.5-0.6,1.6-0.6,1.2c0,0.3,0.2,0.5,0.3,0.8
					c1.1,2.4,2.6,4.6,4,6.8c5.1,8.3,10.5,16.4,15.8,24.6c5.5,8.4,11.1,16.8,16.7,25.1c1.7,2.5,3.4,5.1,5.1,7.6
					c0.3,0.5,0.6,1.1,1,1.5c0.2,0.3-0.6-0.4,0,0c3.7,1.9,7.9,3.3,11.8,4.8c8,3.3,16,6.6,24.1,9.9c19.7,8.1,39.3,16.1,59,24.2
					c9.9,4,19.7,8.6,29.8,12.2c3.7,1.3,7.4,2.5,11.1,3.8c0.4,0.1,0.6,0.7,0.3,1c-0.9,0.7-1.8,1.4-2.7,2.1c-0.8,0.7-2.5,1.5-3.1,2.4
					c0.2-0.4,0,0.6-0.1,0.8c-0.1,0.8-0.3,1.5-0.4,2.3c-0.2,1.3-0.4,2.5-0.7,3.8c-0.1,0.4-0.7,0.5-1,0.3c-2.5-2.7-5.1-5.3-7.6-8
					c-0.4-0.4-0.8-1-1.3-1.3c-0.3-0.3,0.2,0.1,0,0c-0.3-0.2-0.6-0.2-0.9-0.4c-4-1.5-7.9-3.1-11.9-4.6c-16.3-6.3-32.5-12.5-48.8-18.9
					c-16.8-6.5-33.6-13.1-50.4-19.8c-4.5-1.8-9.1-3.6-13.6-5.6c-2.3-1-2.7-2-4.1-4.1c-9.6-14.5-19.5-28.8-29.4-43.1
					c-4.8-6.9-9.5-13.8-14.4-20.6c-1.2-1.6-2.3-3.5-3.7-5c-1.9-2-5.4-2.5-8-3.2c-10-2.5-20.6-4.1-30.9-4.9
					c-5.6-0.4-10.2,2.5-14.5,5.8c-2.1,1.7-4.7,3.5-5.7,6.1c-6,15.5-10.9,31.5-16.3,47.2c-2.4,6.9-4.7,13.9-7.2,20.7
					c-0.4,1-0.6,2.1-1.3,2.9c-1.5,1.8-3.9,3.3-5.7,4.8c-7.4,6-14.8,11.9-22.2,17.8c-4,3.2-8.3,6.2-12,9.7c-2.6,2.4-5.3,4.9-7.9,7.3
					c-0.4,0.3-1,0.1-1-0.4c0-1.7,0-3.5-0.1-5.2c0-0.6,0.2-1.6,0-2.2c0.2,0.7-0.9-0.7-1.2-1c-0.6-0.6-2.5-2.1-2.4-3.2
					c0.1-1.3,1.4-0.8,2.3-0.8c1.9,0,5-0.4,6.7-1.3c0.4-0.2-0.3,0.2,0.2-0.1c0.3-0.2,0.6-0.5,0.8-0.8c2.2-2.2,4.5-4.3,6.7-6.5
					c6.2-6,12.5-12,18.7-18.1c1.4-1.3,3.2-2.6,4.3-4.2c-0.3,0.4,0-0.1,0.1-0.3c0.3-0.7,0.6-1.5,0.9-2.3c5.7-15,11.4-29.9,17-44.9
					c2.4-6.4,4.8-12.7,7.3-19.1c0.4-1,0.8-1.9,1.1-2.9c0.6-1.9,1.1-5.7-0.7-7.3c-0.6-0.5-1.5-0.7-2.3-1c-7.3-2.4-15-3.8-22.5-5.2
					c-9-1.7-18.2-3.4-27.4-4.2c-2.3-0.2-5.6-0.9-7.9-0.1c-1.3,0.4-2.3,1.6-3.6,2.2c-2.4,1.2-5.1,1.7-7.7,1.9
					c-1.2,0.1-2.3-0.1-3.4,0.3c-1.5,0.5-2.9,1.5-4.3,2.4c-1.1,0.7-2.7,1.2-3.6,1.8c-1.3,0.8-2.5,2.2-3.6,3.2
					c-12.1,11.5-23.6,23.5-35.3,35.5c-6,6.2-12.1,12.4-18.1,18.6c-3,3.1-5.9,6.8-9.2,9.5c-1.1,0.9-2.6,1.1-3.9,1.4
					c-3,0.7-6,1.1-9.1,1.6c-8.7,1.3-17.5,2.2-26.2,3.1c-8.7,0.9-17.3,1.7-26,2.5c-2.7,0.2-5.5,0.5-8.2,0.7c-0.7,0.1-1.4,0.1-2.1,0.2
					c-0.8,0.1,0-0.1-0.7,0.3c-3,1.4-5.9,3.3-8.9,4.9c-0.4,0.2-0.9-0.2-0.8-0.6c0.3-1.3,0.6-2.7,1-4c0.2-0.9,0.4-1.8,0.6-2.6
					c0-0.2,0.3-1.6,0.3-1.1c0-2.7-1.3-5.7-1.9-8.3c-0.1-0.5,0.4-0.9,0.8-0.6c2.7,1.5,5.3,3.1,8,4.7c0.4,0.2,0.9,0.6,1.3,0.8
					c0.4,0.1-0.6,0-0.2,0c0.4,0,0.9-0.1,1.3-0.2c5.1-0.7,10.2-1.5,15.4-2.3c15.2-2.4,30.7-4.6,45.6-8.8c2.1-0.6,4.4-1.2,6.4-2.3
					c1.4-0.8,2.3-2,3.4-3.2c5.1-5.4,10.3-10.6,15.5-15.8c12.7-12.7,25.9-24.9,38.6-37.6c1-1,6.6-6,4-7.1c-1-0.4-3.7,0.1-5,0.2
					c-2.2,0.1-4.4,0.1-6.6,0.2c-2.3,0.1-5.2-0.4-6.8,1.6c-1.6,2-2.9,3.9-5.4,4.8c-2.3,0.8-4.7,0.5-6.7-0.9c-1.9-1.4-3.1-3.6-2.9-6
					c0.2-2,0.6-3.5,0-5.6c-0.5-1.7-1.3-3.3-2.3-4.7C170,195,171,194.5,171.4,195L171.4,195z"/>
			</g>
			<line class="st6" x1="343.6" y1="-328.6" x2="343.6" y2="707.4"/>
		</g>
		<g>
			<g>
				<path class="st3" d="M169.2,189.4c0.2-2.1,1-3.9,2.2-5.6c0.3-0.4-0.1-0.9-0.5-0.9c-16,0.1-31.8-2.5-47.2-6.3
					c-13.9-3.4-27.7-7.6-41.2-12.4c-25.8-9.1-50.8-20.9-73.3-36.5c-12.6-8.8-24.4-18.7-35-29.9c-0.5-0.5-1.3,0.3-0.8,0.8
					c18.9,20.1,41.7,36,66.2,48.5c24.9,12.7,51.5,22.1,78.5,29.2c17.3,4.5,34.9,7.8,52.8,7.6c-0.2-0.3-0.3-0.6-0.5-0.9
					c-1.3,1.9-2.2,3.8-2.4,6.2C168,190.2,169.1,190.2,169.2,189.4L169.2,189.4z"/>
			</g>
			<g>
				<path class="st3" d="M171.4,183.8c1.5-2,2.7-4.7,2.9-7.2c0.1-1,0-1.7-0.2-2.7c-0.6-3.1,0.8-6.1,4.2-7c2.2-0.5,4.6,0.4,6.3,1.8
					c1.3,1.1,1.7,2.5,2.8,3.7c1.7,1.8,4.9,1.2,7.2,1.2c3.6,0.1,7.3,0.3,10.9,0.3c0.4,0,0.8,0.1,1.1,0c1.3-0.3,1.7-1.2,1.3-2.5
					c-0.9-3.6-5.4-6.9-7.9-9.3c-2.8-2.6-5.5-5.2-8.2-7.8c-7.1-6.9-14.2-13.8-21.2-20.8c-6.3-6.2-12.6-12.5-18.8-18.8
					c-2.8-2.9-5-6-8.8-7.5c-6.2-2.4-13-3.6-19.5-4.9c-8.4-1.7-16.9-3.1-25.4-4.5c-6.7-1.1-13.3-2.1-20-3c-1.1-0.1-1.7-0.4-2.7,0
					c-3.1,1.2-6.1,3.6-9.1,5.3c0.3,0.2,0.6,0.4,0.8,0.6c0.6-2.6,1.9-5.8,1.9-8.5c0-2.6-1.3-5.7-1.9-8.2c-0.3,0.2-0.6,0.4-0.8,0.6
					c3.8,2.1,7.4,5,11.8,5.4c6.7,0.6,13.4,1.2,20.1,1.8c9.6,0.9,19.1,1.9,28.7,3c7.2,0.9,14.6,1.5,21.6,3.3c3.2,0.8,4.9,3.3,7.2,5.7
					c5.4,5.5,10.8,11.1,16.1,16.6c12.7,13,25.4,26.1,38.4,38.8c2.6,2.6,5.3,5.9,8.7,7.4c2.4,1,4.4,2.9,6.8,3.7
					c2.4,0.8,5.2,0.3,7.7,0.9c1.7,0.4,3.4,1,4.8,2c0.5,0.3,0.9,0.9,1.5,1.2c0.7,0.3,1.5,0.4,2.2,0.4c7.4,0.5,15.2-1.2,22.4-2.4
					c9.3-1.5,18.5-3.3,27.6-5.5c2.7-0.7,5.5-1.3,8.1-2.3c2.9-1.2,3.3-4.3,3-7.2c-0.5-3.6-2.3-7.1-3.6-10.4
					c-6.2-16.3-12.4-32.6-18.6-48.9c-1.1-2.8-2.2-5.7-3.2-8.5c-0.5-1.2-0.8-2.7-1.4-3.8c-0.7-1.1-1.9-2-2.8-2.9
					c-2.9-2.8-5.7-5.5-8.6-8.3c-5.9-5.7-11.7-11.3-17.6-17c-1.5-1.4-2-2.1-4.1-2.6c-1.2-0.3-2.5-0.6-3.8-0.8
					c-0.7-0.1-1.8,0.1-2.4-0.1c-0.8-0.3-0.2,0.4-0.2,0.1c0-0.3,0.8-1,1-1.3c0.6-0.7,1.6-1.3,2-2.1c1.1-1.9,0.4-5.8,0.4-8
					c-0.3,0.1-0.6,0.3-1,0.4c10.3,9.5,21.3,18,32.2,26.8c3.5,2.8,7.1,5.7,10.6,8.5c1.6,1.3,3.9,2.6,5.1,4.3c0.5,0.8,1,2.8,1.4,3.9
					c1.2,3.3,2.3,6.6,3.4,9.9c6,17.4,11.8,34.8,17.9,52.1c0.6,1.8,1.1,3.8,2,5.5c1.5,3,5,5.3,7.7,7.1c3.8,2.7,7.9,4.9,12.6,4.6
					c4.5-0.3,9.1-0.9,13.6-1.6c5.5-0.8,11-1.7,16.5-3c3-0.7,7.2-1.2,9.6-3.3c1.2-1,2-2.5,2.9-3.7c1.9-2.6,3.8-5.3,5.6-7.9
					c11.1-15.8,22-31.7,32.8-47.7c2-2.9,3.9-5.8,5.8-8.6c0.9-1.3,1.7-3,2.7-4.2c0.3-0.3-0.2,0.1,0.3-0.3c0.4-0.3,0.9-0.4,1.3-0.6
					c1.8-0.8,3.7-1.6,5.5-2.4c15-6.2,30-12,45.1-17.9c17.7-6.9,35.3-13.7,53-20.6c5.8-2.2,11.5-4.4,17.3-6.7
					c2.7-1.1,4.6-1.5,6.6-3.6c2.5-2.6,5-5.2,7.5-7.8c-0.3-0.1-0.6-0.2-1-0.3c0.2,1.3,0.4,2.6,0.7,3.8c0.2,1,0.1,2.6,0.7,3.5
					c0.5,0.8,2,1.6,2.8,2.2c1.1,0.8,2.1,1.7,3.2,2.5c0.1-0.3,0.2-0.6,0.3-0.9c-10.8,3.7-21.2,7.9-31.7,12.2
					c-20.3,8.3-40.6,16.7-60.9,25c-14.2,5.8-28.4,11.5-42.5,17.4c-2.6,1.1-4.1,5-5.7,7.2c-5.7,8.5-11.3,17-17,25.6
					c-5.8,8.8-11.5,17.5-17.1,26.5c-1.5,2.3-3.1,4.7-4.2,7.2c-0.2,0.5-0.5,0.9-0.4,1.5c0.1,0.5,0.6,1.3,0.9,1.8c0.6,1.5,1.3,3,2,4.4
					c1.3,2.3,3,4.6,5.6,5.4c1.8,0.5,3.8,0.8,5.6,1.1c5.9,1.1,11.8,2.2,17.8,3.2c6.7,1.2,13.2,1.9,20,2.5c5.8,0.5,11.5,1,17.2,1.6
					c2.8,0.3,5.5,0.8,8.3,1c10.1,0.5,20.3-0.3,30.4,0.8c3.7,0.4,7.7-0.5,11.4-1c5.8-0.8,11.6-1.8,17.4-2.1c2.9-0.1,5.4,0.9,8.4,1.1
					c5.8,0.4,11.6,0.3,17.4,0.5c2.4,0.1,4.9,0.1,7.3,0.6c1.1,0.2,1.8,0.9,2.8,1.1c1.8,0.4,4,0.1,5.9-0.1c3-0.3,6.1-0.6,9.1-0.9
					c2.8-0.2,5.7-0.5,8.5-0.3c2,0.1,2.9,1,4.6,1.7c2.1,0.9,4.8,0.6,6.9,0.5c3.2-0.2,6.3-0.6,9.5-0.9c2.3-0.3,5.1-0.9,7.5-0.4
					c1.6,0.4,2.6,0.8,4.4,0.5c2.8-0.4,5.5-1.3,8.3-1.9c1.1-0.2,2.7-0.8,3.8-0.5c0.9,0.2,1.1,0.9,1.9,1.4c2,1.2,5,0.8,7.3,1
					c1.8,0.2,2.6,0.4,3.8,1.7c0.5,0.6,0.7,1,1.6,1.1c2.2,0.3,3.2-2.1,4.9-2.6c-0.9,0.2,0,0.4,0.5,0.8c0.3,0.2,0.7,0.6,1.1,0.7
					c0.6,0.2,1.3-0.1,1.9-0.3c1.1-0.2,2.2-0.5,3.3-0.7c0.5-0.1-0.5-0.6-0.2,0c0.2,0.4,0.4,0.8,0.5,1.2c0.9,2,1.8,4,2.8,5.9
					c0.3,0.7,1.3,0.1,1-0.6c-1.2-2.5-2.3-4.9-3.5-7.4c-0.1-0.2-0.4-0.3-0.6-0.3c-1.4,0.3-2.8,0.5-4.1,0.9c-1.2,0.3-1.4-0.3-2.8-1.1
					c-0.2-0.1-0.5-0.1-0.7,0.1c-0.7,0.6-1.4,1.2-2.2,1.6c-1.7,0.9-2.3-0.1-3.5-1.1c-1.5-1.3-4.2-1.1-6-1.3c-1.3-0.1-3,0-4.2-0.5
					c-0.8-0.3-1-1-1.8-1.4c-1.4-0.7-3.6-0.1-5,0.2c-2.7,0.6-5.4,1.4-8.1,1.9c-1.9,0.3-3-0.2-4.8-0.5c-5.1-0.8-10.8,0.9-15.9,1.3
					c-2.3,0.2-5.3,0.6-7.5-0.4c-1.4-0.6-2.2-1.4-3.8-1.6c-5.2-0.8-10.7,0.3-15.9,0.8c-2.4,0.2-4.8,0.5-7.2,0.5c-1.3,0-1.9-0.4-3-0.9
					c-3.6-1.5-8.8-1-12.6-1.1c-5.1-0.1-10.3,0.1-15.4-0.6c-1.1-0.1-2-0.6-3.1-0.8c-1.5-0.4-3.3-0.1-4.8,0c-5.5,0.4-10.9,1.3-16.3,2
					c-3.6,0.5-7.5,1.3-11.2,0.9c-9.6-1-19.4-0.3-29-0.7c-7.5-0.3-15.2-1.6-22.7-2.3c-6.7-0.6-13.2-0.9-19.5-2
					c-5.5-0.9-10.9-1.9-16.3-2.9c-2.6-0.5-5.1-0.9-7.7-1.4c-2.2-0.4-4.5-0.6-6.2-2.3c-2.2-2.1-3.3-5.2-4.5-8
					c-0.2-0.5-0.6-1.6-0.6-1.2c0-0.3,0.2-0.5,0.3-0.8c1.1-2.4,2.6-4.6,4-6.8c5.1-8.3,10.5-16.4,15.8-24.6
					c5.5-8.4,11.1-16.8,16.7-25.1c1.7-2.5,3.4-5.1,5.1-7.6c0.3-0.5,0.6-1.1,1-1.5c0.2-0.3-0.6,0.4,0,0c3.7-1.9,7.9-3.3,11.8-4.8
					c8-3.3,16-6.6,24.1-9.9c19.7-8.1,39.3-16.1,59-24.2c9.9-4.1,19.7-8.6,29.8-12.2c3.7-1.3,7.4-2.5,11.1-3.8
					c0.4-0.1,0.6-0.7,0.3-0.9c-0.9-0.7-1.8-1.4-2.7-2.1c-0.8-0.7-2.5-1.5-3.1-2.4c0.2,0.4,0-0.6-0.1-0.8c-0.1-0.8-0.3-1.5-0.4-2.3
					c-0.2-1.3-0.4-2.6-0.7-3.8c-0.1-0.4-0.7-0.5-1-0.3c-2.5,2.7-5.1,5.3-7.6,8c-0.4,0.4-0.8,1-1.3,1.3c-0.3,0.3,0.2-0.1,0,0
					c-0.3,0.2-0.6,0.2-0.9,0.3c-4,1.5-7.9,3.1-11.9,4.6c-16.3,6.3-32.5,12.6-48.8,18.9c-16.8,6.5-33.6,13.1-50.4,19.8
					c-4.5,1.8-9.1,3.6-13.6,5.6c-2.3,1-2.7,2-4.1,4.1c-9.6,14.5-19.5,28.8-29.4,43.1c-4.8,6.9-9.5,13.8-14.4,20.6
					c-1.2,1.6-2.3,3.5-3.7,5c-1.9,2-5.4,2.5-8,3.2c-10,2.5-20.6,4.1-30.9,4.9c-5.6,0.4-10.2-2.5-14.5-5.8c-2.1-1.7-4.7-3.5-5.7-6.1
					c-6-15.5-10.9-31.5-16.3-47.2c-2.4-6.9-4.7-13.9-7.2-20.7c-0.4-1-0.6-2.1-1.3-2.9c-1.5-1.8-3.9-3.3-5.7-4.8
					c-7.4-6-14.8-11.9-22.2-17.8c-4-3.2-8.3-6.2-12-9.7c-2.6-2.4-5.3-4.9-7.9-7.3c-0.4-0.3-1-0.1-1,0.4c0,1.7,0,3.4-0.1,5.2
					c0,0.6,0.2,1.6,0,2.2c0.2-0.7-0.9,0.7-1.2,1c-0.6,0.7-2.5,2.1-2.4,3.2c0.1,1.3,1.4,0.8,2.3,0.8c1.9,0,5,0.4,6.7,1.3
					c0.4,0.2-0.3-0.2,0.2,0.1c0.3,0.2,0.6,0.6,0.8,0.8c2.2,2.2,4.5,4.3,6.7,6.5c6.2,6,12.5,12,18.7,18.1c1.4,1.3,3.2,2.6,4.3,4.2
					c-0.3-0.4,0,0.1,0.1,0.3c0.3,0.7,0.6,1.5,0.9,2.3c5.7,14.9,11.4,29.9,17,44.8c2.4,6.4,4.8,12.7,7.3,19.1
					c0.4,0.9,0.8,1.9,1.1,2.9c0.6,1.9,1.1,5.7-0.7,7.3c-0.6,0.5-1.5,0.7-2.3,1c-7.3,2.4-15,3.8-22.5,5.2c-9,1.7-18.2,3.4-27.4,4.2
					c-2.3,0.2-5.6,0.9-7.9,0.1c-1.3-0.4-2.3-1.6-3.6-2.2c-2.4-1.2-5.1-1.7-7.7-1.9c-1.2-0.1-2.3,0.1-3.4-0.3
					c-1.5-0.5-2.9-1.6-4.3-2.4c-1.1-0.7-2.7-1.2-3.6-1.8c-1.3-0.8-2.5-2.2-3.6-3.2c-12.1-11.5-23.6-23.6-35.3-35.5
					c-6-6.2-12.1-12.4-18.1-18.6c-3-3.1-5.9-6.8-9.2-9.5c-1.1-0.9-2.6-1.1-3.9-1.4c-3-0.7-6-1.1-9.1-1.6c-8.7-1.3-17.5-2.2-26.2-3.1
					c-8.7-0.9-17.3-1.7-26-2.5c-2.7-0.2-5.5-0.5-8.2-0.7c-0.7-0.1-1.4-0.1-2.1-0.2c-0.8-0.1,0,0.1-0.7-0.3c-3-1.4-5.9-3.3-8.9-4.9
					c-0.4-0.2-0.9,0.2-0.8,0.6c0.3,1.3,0.6,2.7,1,4c0.2,0.9,0.4,1.8,0.6,2.6c0,0.2,0.3,1.6,0.3,1.1c0,2.7-1.3,5.7-1.9,8.3
					c-0.1,0.5,0.4,0.9,0.8,0.6c2.7-1.6,5.3-3.1,8-4.7c0.4-0.2,0.9-0.6,1.3-0.8c0.4-0.1-0.6,0-0.2,0c0.4,0,0.9,0.1,1.3,0.2
					c5.1,0.7,10.2,1.5,15.4,2.3c15.2,2.4,30.7,4.6,45.6,8.8c2.1,0.6,4.4,1.2,6.4,2.3c1.4,0.8,2.3,2.1,3.4,3.2
					c5.1,5.4,10.3,10.6,15.5,15.8c12.7,12.7,25.9,24.9,38.6,37.6c1,1,6.6,6.1,4,7.1c-1,0.4-3.7-0.1-5-0.2c-2.2-0.1-4.4-0.1-6.6-0.2
					c-2.3-0.1-5.2,0.4-6.8-1.6c-1.6-2-2.9-3.9-5.4-4.8c-2.3-0.8-4.7-0.5-6.7,0.9c-1.9,1.4-3.1,3.6-2.9,6c0.2,2.1,0.6,3.6,0,5.6
					c-0.5,1.7-1.3,3.3-2.3,4.7C170,183.9,171,184.4,171.4,183.8L171.4,183.8z"/>
			</g>
			<line class="st6" x1="343.6" y1="707.4" x2="343.6" y2="-328.6"/>
		</g>
	</g>
</g>
</svg>
