<svg id="Layer_1" data-name="Layer 1" xmlns="http://www.w3.org/2000/svg" width="683.79078" height="396.55164" viewBox="0 0 683.79078 396.55164">
  <g>
    <path d="M441.15728,242.98137c-4.66635-.12726-5.82587-7.12679-12.076-4.58151s-1.15952,18.07151-3.19575,18.83509-25.70736-7.63585-24.94377-11.19924,2.54528-3.30887,6.36321-3.05434,2.29075-5.3451,1.01811-6.36321-12.21736-3.81792-15.52623,1.27264-.76358,11.45378,0,13.23547,7.63585,6.10868,1.27264,4.327-57.01434-18.8351-62.1049-21.88944-24.43472-21.6349-33.34321-28.7617-31.307-25.45283-33.08868-29.52528-21.38038-55.99622-25.70736-60.32321-15.52622-18.0715-19.08962-14.50811,6.10868,11.96283,9.67208,19.59868,23.67113,62.614,26.72547,66.43189,58.796,55.74169,66.17736,59.30509,93.49672,27.5739,91.29081,29.27075c-3.02618,2.32783-95.10874,25.96189-107.3261,26.72548s-41.99717-4.07246-53.19641-5.59963-51.66925-5.34509-58.54151-7.63585-64.65019-26.21641-69.48623-27.23452-27.74358-.76359-26.21641,4.836,18.07151,2.03623,22.144,3.30887,63.63208,28.592,70.75887,30.58582,101.55679,17.011,116.82849,15.73833,102.63855-28.46155,101.81132-26.98c-1.15121,2.06178-50.65113,58.54151-57.01434,61.34132s-50.90566,21.38038-57.26887,21.38038-36.39755-6.36321-41.99717-5.85415-22.39849,6.87226-19.59868,11.96283,14.50812-3.81792,20.10774-3.5634,33.34321,9.67208,41.48811,9.41755,60.32321-15.2717,66.68642-19.85321,50.47858-64.43166,47.93616-57.01434c-1.86183,5.43175-29.86465,71.52246-33.17352,75.59491s-13.99906,20.87132-19.59868,29.52528-17.0534,27.23453-21.38038,31.816-17.0534,16.28981-21.6349,21.6349-22.144,26.21642-16.54434,29.77982,12.72641-15.01717,20.36226-22.39849,21.12585-18.326,26.21641-25.19831,33.85227-46.32415,39.961-56.75981,31.56151-76.613,31.307-72.54056-6.61774,16.03528-7.38132,40.979,16.28981,48.86944,31.307,48.86944" transform="translate(-99.26189 -99.36198)" fill="none" stroke="#231f20" stroke-linecap="round" stroke-miterlimit="10"/>
    <path d="M441.15728,242.98137c4.58151.76358,5.82587-7.12679,12.07595-4.58151s1.15952,18.07151,3.19575,18.83509,25.70736-7.63585,24.94377-11.19924-2.54528-3.30887-6.36321-3.05434-2.29075-5.3451-1.01811-6.36321,12.21736-3.81792,15.52623,1.27264.76358,11.45378,0,13.23547-7.63585,6.10868-1.27265,4.327,57.01434-18.8351,62.10491-21.88944,24.43472-21.6349,33.34321-28.7617,31.307-25.45283,33.08868-29.52528,21.38037-55.99622,25.70735-60.32321,15.52623-18.0715,19.08963-14.50811-6.10868,11.96283-9.67208,19.59868-23.67113,62.614-26.72547,66.43189-58.796,55.74169-66.17736,59.30509-93.49673,27.5739-91.29082,29.27075c3.02618,2.32783,95.10875,25.96189,107.3261,26.72548s41.99717-4.07246,53.19642-5.59963,51.66924-5.34509,58.54151-7.63585,64.65019-26.21641,69.48622-27.23452,27.74359-.76359,26.21642,4.836-18.07151,2.03623-22.144,3.30887-63.63208,28.592-70.75887,30.58582-101.55679,17.011-116.82849,15.73833-102.63855-28.46155-101.81132-26.98c1.15121,2.06178,50.65113,58.54151,57.01434,61.34132s50.90566,21.38038,57.26887,21.38038,36.39754-6.36321,41.99717-5.85415,22.39849,6.87226,19.59868,11.96283-14.50812-3.81792-20.10774-3.5634-33.34321,9.67208-41.48811,9.41755-60.32321-15.2717-66.68642-19.85321-50.47858-64.43166-47.93616-57.01434c1.86182,5.43175,29.86465,71.52246,33.17352,75.59491s13.99906,20.87132,19.59868,29.52528,17.0534,27.23453,21.38038,31.816,17.05339,16.28981,21.6349,21.6349,22.144,26.21642,16.54434,29.77982-12.72641-15.01717-20.36226-22.39849-21.12585-18.326-26.21642-25.19831-33.85226-46.32415-39.96094-56.75981-31.56151-76.613-31.307-72.54056,6.61773,16.03528,7.38132,40.979-16.28981,48.86944-31.307,48.86944" transform="translate(-99.26189 -99.36198)" fill="none" stroke="#231f20" stroke-linecap="round" stroke-miterlimit="10"/>
    <path d="M440.70478,259.27118c-4.55322,0-14.8192-2.03623-14.8192-2.03623-5.45929,4.98822-9.3893,12.962-11.28409,17.817a54.56658,54.56658,0,0,0-3.224,13.74453c-.74427,7.61652-.84843,11.7083.33937,17.817s5.51478,11.45378,5.51478,11.45378S433.776,320.358,441.15728,320.358" transform="translate(-99.26189 -99.36198)" fill="none" stroke="#231f20" stroke-linecap="round" stroke-miterlimit="10"/>
    <path d="M440.70478,259.27118c4.55323,0,14.81921-2.03623,14.81921-2.03623,5.45928,4.98822,9.3893,12.962,11.28409,17.817a54.56658,54.56658,0,0,1,3.224,13.74453c.74427,7.61652.84843,11.7083-.33937,17.817s-5.51478,11.45378-5.51478,11.45378-16.54434,2.29075-23.92566,2.29075" transform="translate(-99.26189 -99.36198)" fill="none" stroke="#231f20" stroke-linecap="round" stroke-miterlimit="10"/>
  </g>
</svg>
