<svg id="Stick" xmlns="http://www.w3.org/2000/svg" width="683.64471" height="327.71651" viewBox="0 0 683.64471 327.71651">
  <g id="Stick-2" data-name="Stick">
    <g>
      <path d="M279.79152,250.69689a11.29427,11.29427,0,0,0,2.20519,5.58784.57087.57087,0,0,1-.48936.85279c-15.95841-.11035-31.769,2.48246-47.23378,6.26384a427.48492,427.48492,0,0,0-41.235,12.38542c-25.77092,9.1356-50.77356,20.89488-73.2971,36.48841A219.39847,219.39847,0,0,0,84.78638,342.1869c-.501.53232-1.30141-.27032-.8015-.8015,18.87606-20.05656,41.688-36.00633,66.15042-48.51193,24.90312-12.73087,51.51416-22.15333,78.54358-29.22444,17.24918-4.51252,34.94166-7.76868,52.82847-7.645l-.48937.85279a12.40123,12.40123,0,0,1-2.36-6.15993c-.06288-.72662,1.071-.72241,1.1335,0Z" transform="translate(-83.8267 -86.82838)" fill="#231f20"/>
      <path d="M281.99671,256.28473a14.9384,14.9384,0,0,1,2.91317,7.24131,9.13878,9.13878,0,0,1-.22879,2.71292c-.57783,3.1408.81325,6.14241,4.208,6.96088a7.35388,7.35388,0,0,0,6.25339-1.76984c1.29709-1.09382,1.74062-2.52783,2.82757-3.71038,1.68208-1.83,4.93466-1.16568,7.1845-1.235,3.63007-.11183,7.274-.32686,10.90555-.32177a4.4291,4.4291,0,0,1,1.1441-.00869A1.75265,1.75265,0,0,1,318.549,268.61c-.91259,3.5969-5.38458,6.92627-7.88179,9.27251q-4.13417,3.88422-8.20628,7.83364Q291.782,296.02747,281.24626,306.4863c-6.29664,6.23443-12.58531,12.48044-18.76144,18.83469-2.80321,2.88406-4.9892,6.01749-8.81657,7.48565-6.23768,2.39275-13.005,3.62414-19.5313,4.93467-8.43654,1.69413-16.92142,3.14763-25.41637,4.51511q-9.99692,1.60926-20.0224,3.03681a4.63409,4.63409,0,0,1-2.71053-.03721c-3.14-1.2386-6.14783-3.58126-9.072-5.28463l.83255-.64c.61055,2.64572,1.91562,5.752,1.94423,8.45651.0275,2.59818-1.33259,5.70479-1.94423,8.23876l-.83255-.64c3.7976-2.08495,7.43854-5.04447,11.80974-5.41246q10.05779-.84669,20.10673-1.79547c9.56684-.901,19.1302-1.85707,28.67383-2.97985,7.19358-.84631,14.605-1.49611,21.64569-3.27158,3.22908-.81428,4.94045-3.33777,7.21205-5.67476q8.06529-8.29744,16.13585-16.58974c12.69248-13.02408,25.347-26.10334,38.35074-38.81846,2.638-2.57941,5.28107-5.891,8.71383-7.3518,2.38175-1.01353,4.36475-2.88374,6.83658-3.7093,2.40179-.80216,5.18014-.3131,7.6879-.94473a13.86318,13.86318,0,0,0,4.7649-2.0395,9.25464,9.25464,0,0,1,1.50127-1.16815,6.5341,6.5341,0,0,1,2.19583-.40406c7.34615-.50935,15.18647,1.18971,22.39881,2.36208,9.25626,1.50462,18.502,3.25071,27.61592,5.46871a58.37188,58.37188,0,0,1,8.069,2.31374c2.89369,1.16872,3.31489,4.26769,2.94743,7.16671-.45422,3.58366-2.31745,7.09158-3.58535,10.427L391.41591,341.844l-3.24141,8.52706a23.51245,23.51245,0,0,1-1.44092,3.79057,16.72953,16.72953,0,0,1-2.84346,2.8657L375.3132,365.297l-17.60486,16.97424c-1.48121,1.42815-2.04725,2.04921-4.06737,2.5598a33.25008,33.25008,0,0,1-3.75361.76125,17.58585,17.58585,0,0,0-2.42362.11983c-.842.26032-.23353-.39418-.20132-.12726.03977.32963.80218,1.01507,1.03028,1.27523a17.00463,17.00463,0,0,1,2.02323,2.07877c1.1325,1.93715.38983,5.7501.41777,8.014l-.96749-.40075c10.29547-9.53686,21.28065-18.05116,32.22664-26.8411q5.29525-4.25223,10.56264-8.53927c1.57532-1.28845,3.92927-2.65136,5.12688-4.32744a21.42119,21.42119,0,0,0,1.42449-3.85154c1.16212-3.284,2.295-6.57843,3.42793-9.87255,5.976-17.37526,11.77775-34.81346,17.90042-52.13787a45.48757,45.48757,0,0,1,2.01273-5.47205c1.50527-2.95941,5.04407-5.26455,7.67284-7.12246,3.80779-2.69119,7.87732-4.90353,12.63966-4.6096,4.53652.28,9.06482.92651,13.55892,1.58632,5.52568.81127,11.04768,1.74019,16.49408,2.98363,2.98876.68235,7.18768,1.23087,9.63281,3.28068a20.1269,20.1269,0,0,1,2.90787,3.71252c1.901,2.61871,3.76416,5.26514,5.62444,7.91286q16.63357,23.67432,32.82852,47.65711,2.92677,4.31456,5.82832,8.64626a35.37654,35.37654,0,0,0,2.72767,4.18573c.26082.287-.15841-.0758.288.2468a7.75024,7.75024,0,0,0,1.31143.62748c1.81829.83056,3.67174,1.58784,5.51865,2.35163,14.95365,6.18406,30.05371,12.02334,45.12568,17.91081q26.4824,10.34463,53.01081,20.571,8.63367,3.33344,17.27051,6.65867c2.71925,1.0468,4.60775,1.53572,6.60028,3.62991l7.46339,7.84417-.94725.25009.64587-3.82556c.16323-.96682.1189-2.60625.65288-3.45893.52483-.83808,2.01-1.593,2.77123-2.18776l3.16753-2.47463.25008.94725c-10.79693-3.65566-21.191-7.85622-31.74-12.18492l-60.93958-25.006c-14.14917-5.806-28.35894-11.48409-42.454-17.42063-2.63722-1.11075-4.13906-4.96359-5.65485-7.23082q-8.53111-12.76041-16.97316-25.58019c-5.76707-8.76989-11.54181-17.5438-17.05628-26.47573a61.50257,61.50257,0,0,1-4.212-7.24243,2.84965,2.84965,0,0,1-.41343-1.46415,8.06054,8.06054,0,0,1,.84993-1.78088c.65115-1.47851,1.26686-2.97037,2.04962-4.38679,1.28033-2.31677,2.96348-4.62436,5.61294-5.39909,1.815-.53072,3.7608-.77394,5.616-1.12373,5.91433-1.11517,11.84144-2.16356,17.76839-3.20908,6.6977-1.18148,13.17614-1.87057,19.95875-2.46121,5.74589-.50035,11.49251-1.00417,17.23034-1.59092,2.75592-.28181,5.51049-.81572,8.27354-.96262,10.10149-.53705,20.32832.30292,30.39449-.753,3.74307-.39265,7.68864.5,11.3953,1.01051,5.77305.79509,11.57486,1.78763,17.401,2.09519,2.93217.15479,5.43712-.85887,8.36289-1.061,5.7919-.40021,11.61273-.29888,17.41248-.519a43.2307,43.2307,0,0,0,7.25478-.59113c1.08363-.22958,1.76964-.88706,2.81688-1.13973,1.83663-.44312,4.033-.07589,5.88161.07494,3.0468.24859,6.084.60294,9.12968.86472a52.45049,52.45049,0,0,0,8.45892.283c1.9749-.15169,2.89371-.976,4.59072-1.662,2.09409-.84652,4.74693-.60675,6.93785-.48314,3.18625.17976,6.35485.593,9.5255.94081,2.309.25331,5.14381.878,7.45661.36989a10.61957,10.61957,0,0,1,4.43733-.51479c2.81663.40739,5.549,1.289,8.32469,1.89518,1.118.24418,2.69092.789,3.83387.50493.85819-.21331,1.1442-.91429,1.90185-1.35211,2.01338-1.16345,5.0392-.77168,7.259-1.0091a4.78868,4.78868,0,0,0,3.77967-1.734c.53065-.58684.73238-1.00609,1.612-1.11115,2.17047-.25923,3.20409,2.09864,4.92439,2.56515-.89267-.24207-.01869-.39476.45709-.74789a4.12811,4.12811,0,0,1,1.09592-.70274,4.47284,4.47284,0,0,1,1.92937.25476c1.10729.23138,2.22448.53255,3.34355.69866.49209.073-.46935.59276-.21634.02043.17363-.39275.36462-.779.54668-1.16793l2.77737-5.93358c.309-.66012,1.28644-.08528.97873.5721l-3.46413,7.40079a.575.575,0,0,1-.64.26045c-1.36705-.28565-2.74543-.53812-4.10481-.85772-1.16138-.273-1.40769.26261-2.77013,1.13626a.57763.57763,0,0,1-.6868-.08861,12.09928,12.09928,0,0,0-2.17445-1.61025c-1.68689-.94331-2.28967.06391-3.46744,1.06434-1.49657,1.27121-4.19327,1.15162-6.01482,1.272a13.1901,13.1901,0,0,0-4.16487.526c-.77522.339-1.04187,1.03712-1.74649,1.41357-1.38972.74246-3.593.08058-5.01079-.2193-2.70734-.57265-5.36029-1.424-8.09326-1.87453-1.91639-.31592-3.01934.23094-4.79144.49654-5.08532.76216-10.83113-.91614-15.917-1.27442-2.285-.161-5.3012-.58047-7.47456.36163-1.387.60123-2.21636,1.37231-3.81228,1.60471-5.17186.75316-10.7081-.26368-15.8621-.76442a58.65308,58.65308,0,0,0-7.14719-.468,6.69186,6.69186,0,0,0-2.98217.92194c-3.59441,1.538-8.80532.96115-12.60228,1.05173-5.09656.12157-10.30483-.05783-15.3734.56581a24.69347,24.69347,0,0,0-3.062.82553,15.87719,15.87719,0,0,1-4.82012-.0194c-5.46725-.42823-10.903-1.29423-16.33283-2.04205-3.63146-.50014-7.48023-1.34162-11.14824-.95335-9.58467,1.01456-19.36887.33585-28.99335.68047-7.55184.27041-15.17617,1.57605-22.71268,2.24562-6.65527.59128-13.22106.92983-19.48775,2.02738q-8.17813,1.43234-16.3485,2.909c-2.55628.46483-5.11219.93282-7.66317,1.42606-2.21222.42774-4.50982.62844-6.20341,2.272-2.21818,2.15269-3.31615,5.20139-4.55459,7.9611-.21137.471-.59363,1.55828-.62482,1.19567a2.68761,2.68761,0,0,0,.31534.76277,64.72432,64.72432,0,0,0,3.96966,6.83478c5.10788,8.29583,10.45869,16.44454,15.80324,24.5889q8.27441,12.609,16.65824,25.14588,2.54409,3.81094,5.09591,7.61673a12.73392,12.73392,0,0,0,1.02454,1.52642c.236.25782-.58184-.34559.05432-.01258,3.70989,1.942,7.92175,3.25063,11.791,4.83832l24.072,9.87776L634.96728,385.828c9.88133,4.05472,19.69617,8.59341,29.76448,12.168,3.66725,1.302,7.37571,2.49729,11.06177,3.74533.35859.12141.612.66452.25009.94725l-2.72692,2.1304c-.84824.66269-2.53462,1.52334-3.1248,2.44125.23147-.36-.03124.597-.068.796-.13815.74888-.25368,1.50254-.38046,2.25346l-.64587,3.82556a.57058.57058,0,0,1-.94725.25008l-7.61266-8.00105a13.75522,13.75522,0,0,0-1.269-1.33375c-.337-.26773.24367.09742.02752-.03594a5.38921,5.38921,0,0,0-.91147-.35045c-3.98126-1.49611-7.93976-3.056-11.90811-4.5859q-24.38592-9.40143-48.74525-18.87172c-16.82033-6.54423-33.64264-13.08878-50.38785-19.82354-4.54373-1.82744-9.11468-3.61912-13.58527-5.62168-2.2597-1.01222-2.70172-2.00821-4.086-4.10316-9.57972-14.49815-19.50561-28.77737-29.392-43.067-4.76962-6.8939-9.53985-13.78968-14.41616-20.60879a47.35092,47.35092,0,0,0-3.66283-4.97624c-1.88933-2.01111-5.4445-2.53679-8.00935-3.16778a186.9121,186.9121,0,0,0-30.871-4.88747c-5.58782-.40455-10.22072,2.4552-14.51,5.8149-2.15024,1.68426-4.66957,3.48019-5.6854,6.09667-6.017,15.49814-10.92045,31.49589-16.298,47.22314-2.36631,6.92047-4.69282,13.85857-7.17311,20.73937a9.8636,9.8636,0,0,1-1.2948,2.94408c-1.47354,1.8216-3.87256,3.28276-5.67523,4.75347-7.35286,5.99886-14.774,11.91464-22.19256,17.83187-4.00407,3.19376-8.26794,6.20738-12.031,9.68768q-3.94946,3.65267-7.89315,7.31155a.57361.57361,0,0,1-.9675-.40075l-.06381-5.16849a8.83117,8.83117,0,0,0-.02755-2.23185c.21208.66163-.90044-.7072-1.171-.98777-.62589-.64916-2.45577-2.14328-2.39183-3.20511.078-1.29515,1.37174-.76887,2.29022-.75721a16.85749,16.85749,0,0,0,6.70144-1.29689c.41628-.21336-.27612.20345.17157-.10264a7.32593,7.32593,0,0,0,.836-.806l6.72951-6.48845,18.74647-18.07495c1.36783-1.31884,3.21623-2.62394,4.32611-4.17115-.31189.43479-.00767-.1067.09643-.33664.32909-.72693.57284-1.50694.85629-2.25261l17.05-44.8528,7.24642-19.06288c.36105-.94979.79384-1.90179,1.08751-2.87555.584-1.93635,1.088-5.73743-.66516-7.26969a6.73772,6.73772,0,0,0-2.24959-.96447c-7.26034-2.44295-14.99108-3.79016-22.49621-5.23041-9.0466-1.73608-18.177-3.35589-27.35726-4.1909-2.3252-.2115-5.618-.8631-7.91756-.13328-1.33883.42492-2.31354,1.59295-3.60561,2.22547a20.41588,20.41588,0,0,1-7.697,1.876,13.73449,13.73449,0,0,0-3.39355.28158,21.51277,21.51277,0,0,0-4.29272,2.35941c-1.13774.67858-2.665,1.20958-3.63279,1.79023a23.23381,23.23381,0,0,0-3.595,3.212c-12.10022,11.46678-23.64334,23.55145-35.29081,35.4728q-9.05859,9.27159-18.08822,18.57139c-2.97691,3.06316-5.86461,6.84019-9.234,9.48566a9.63681,9.63681,0,0,1-3.90959,1.43929c-2.9822.67748-6.02038,1.12532-9.04522,1.56316-8.71493,1.26148-17.47685,2.20739-26.23492,3.11089q-12.99445,1.34055-26.0089,2.47838-4.09535.36309-8.19211.71006c-.68584.05794-1.40721.0581-2.08589.17471-.81731.14043.03623-.10768-.73014.24921-3.03769,1.41459-5.93509,3.25848-8.8739,4.87194a.5736.5736,0,0,1-.83255-.64l.96706-4.00638.637-2.63891c.04408-.18262.311-1.56574.31845-1.11652-.0444-2.6694-1.3198-5.71916-1.92249-8.3308a.5736.5736,0,0,1,.83255-.64l8.00413,4.6626a7.76714,7.76714,0,0,0,1.344.78289c.41858.1309-.56869-.02295-.19.00842a6.31572,6.31572,0,0,0,1.25952-.17668q7.68384-1.08543,15.35067-2.28835c15.21895-2.37453,30.72692-4.60014,45.571-8.8051a31.67721,31.67721,0,0,0,6.38641-2.27123,14.45212,14.45212,0,0,0,3.40509-3.195c5.06474-5.37233,10.31824-10.572,15.54545-15.78511,12.7091-12.67476,25.91393-24.87158,38.56843-37.59122.99773-1.00286,6.59329-6.04989,4.01535-7.09039-1.04536-.42193-3.68341.13093-4.96592.17043l-6.62722.20416c-2.32729.07169-5.20627-.40238-6.83239,1.6363-1.6148,2.02449-2.84707,3.86155-5.4394,4.77037a7.28233,7.28233,0,0,1-6.70991-.86624,6.547,6.547,0,0,1-2.84558-6.00595c.23924-2.05081.62953-3.54851.01722-5.61889a14.90838,14.90838,0,0,0-2.32655-4.67689c-.43525-.586.54816-1.15177.97873-.57209Z" transform="translate(-83.8267 -86.82838)" fill="#231f20"/>
    </g>
    <g>
      <path d="M279.79152,250.67637a11.29423,11.29423,0,0,1,2.20519-5.58783.57087.57087,0,0,0-.48936-.8528c-15.95841.11035-31.769-2.48246-47.23378-6.26384a427.48487,427.48487,0,0,1-41.235-12.38541c-25.77092-9.13561-50.77356-20.89488-73.2971-36.48842a219.398,219.398,0,0,1-34.95512-29.91171c-.501-.53232-1.30141.27032-.8015.8015,18.87606,20.05657,41.688,36.00634,66.15042,48.51193,24.90312,12.73087,51.51416,22.15333,78.54358,29.22444,17.24918,4.51253,34.94166,7.76868,52.82847,7.645l-.48937-.8528a12.40123,12.40123,0,0,0-2.36,6.15993c-.06288.72663,1.071.72242,1.1335,0Z" transform="translate(-83.8267 -86.82838)" fill="#231f20"/>
      <path d="M281.99671,245.08854a14.93848,14.93848,0,0,0,2.91317-7.24131,9.13885,9.13885,0,0,0-.22879-2.71293c-.57783-3.14079.81325-6.14241,4.208-6.96087a7.35385,7.35385,0,0,1,6.25339,1.76984c1.29709,1.09382,1.74062,2.52782,2.82757,3.71037,1.68208,1.83,4.93466,1.16569,7.1845,1.235,3.63007.11183,7.274.32686,10.90555.32177a4.42909,4.42909,0,0,0,1.1441.0087,1.75265,1.75265,0,0,0,1.34471-2.4558c-.91259-3.5969-5.38458-6.92626-7.88179-9.2725q-4.13417-3.88422-8.20628-7.83364Q291.782,205.34578,281.24626,194.887c-6.29664-6.23442-12.58531-12.48044-18.76144-18.83469-2.80321-2.88406-4.9892-6.01748-8.81657-7.48565-6.23768-2.39275-13.005-3.62413-19.5313-4.93467-8.43654-1.69413-16.92142-3.14762-25.41637-4.51511q-9.99692-1.60926-20.0224-3.03681a4.63426,4.63426,0,0,0-2.71053.03721c-3.14,1.2386-6.14783,3.58126-9.072,5.28464l.83255.64c.61055-2.64571,1.91562-5.752,1.94423-8.4565.0275-2.59819-1.33259-5.7048-1.94423-8.23876l-.83255.64c3.7976,2.085,7.43854,5.04448,11.80974,5.41246q10.05779.8467,20.10673,1.79547c9.56684.901,19.1302,1.85707,28.67383,2.97986,7.19358.8463,14.605,1.4961,21.64569,3.27157,3.22908.81428,4.94045,3.33777,7.21205,5.67476q8.06529,8.29745,16.13585,16.58975c12.69248,13.02407,25.347,26.10333,38.35074,38.81845,2.638,2.57941,5.28107,5.891,8.71383,7.35181,2.38175,1.01352,4.36475,2.88373,6.83658,3.70929,2.40179.80216,5.18014.31311,7.6879.94474a13.8628,13.8628,0,0,1,4.7649,2.0395,9.25575,9.25575,0,0,0,1.50127,1.16815,6.53434,6.53434,0,0,0,2.19583.404c7.34615.50935,15.18647-1.18971,22.39881-2.36208,9.25626-1.50461,18.502-3.25071,27.61592-5.4687a58.37327,58.37327,0,0,0,8.069-2.31374c2.89369-1.16873,3.31489-4.2677,2.94743-7.16672-.45422-3.58366-2.31745-7.09158-3.58535-10.427l-18.58052-48.87906-3.24141-8.527a23.51256,23.51256,0,0,0-1.44092-3.79058,16.72947,16.72947,0,0,0-2.84346-2.86569l-8.57692-8.2697L357.70834,119.102c-1.48121-1.42815-2.04725-2.04922-4.06737-2.55981a33.25229,33.25229,0,0,0-3.75361-.76125,17.58585,17.58585,0,0,1-2.42362-.11983c-.842-.26031-.23353.39419-.20132.12726.03977-.32962.80218-1.01507,1.03028-1.27523a17.00463,17.00463,0,0,0,2.02323-2.07877c1.1325-1.93715.38983-5.7501.41777-8.014l-.96749.40075c10.29547,9.53687,21.28065,18.05116,32.22664,26.8411q5.29525,4.25223,10.56264,8.53927c1.57532,1.28845,3.92927,2.65136,5.12688,4.32744a21.421,21.421,0,0,1,1.42449,3.85155c1.16212,3.284,2.295,6.57842,3.42793,9.87255,5.976,17.37525,11.77775,34.81345,17.90042,52.13787a45.48742,45.48742,0,0,0,2.01273,5.472c1.50527,2.95941,5.04407,5.26455,7.67284,7.12246,3.80779,2.69119,7.87732,4.90354,12.63966,4.6096,4.53652-.28,9.06482-.92651,13.55892-1.58632,5.52568-.81127,11.04768-1.74019,16.49408-2.98363,2.98876-.68234,7.18768-1.23087,9.63281-3.28068a20.12656,20.12656,0,0,0,2.90787-3.71252c1.901-2.61871,3.76416-5.26514,5.62444-7.91286q16.63357-23.67432,32.82852-47.65711,2.92677-4.31454,5.82832-8.64626a35.37654,35.37654,0,0,1,2.72767-4.18573c.26082-.287-.15841.0758.288-.2468a7.75024,7.75024,0,0,1,1.31143-.62748c1.81829-.83056,3.67174-1.58784,5.51865-2.35163,14.95365-6.18406,30.05371-12.02334,45.12568-17.9108q26.4824-10.34464,53.01081-20.571,8.63367-3.33343,17.27051-6.65867c2.71925-1.0468,4.60775-1.53572,6.60028-3.62991l7.46339-7.84417-.94725-.25009.64587,3.82556c.16323.96682.1189,2.60625.65288,3.45894.52483.83807,2.01,1.593,2.77123,2.18775l3.16753,2.47464.25008-.94725c-10.79693,3.65565-21.191,7.85621-31.74,12.18491l-60.93958,25.006c-14.14917,5.806-28.35894,11.48409-42.454,17.42064-2.63722,1.11074-4.13906,4.96358-5.65485,7.23081q-8.53111,12.76042-16.97316,25.5802c-5.76707,8.76988-11.54181,17.5438-17.05628,26.47573a61.501,61.501,0,0,0-4.212,7.24243,2.84959,2.84959,0,0,0-.41343,1.46414,8.06054,8.06054,0,0,0,.84993,1.78088c.65115,1.47851,1.26686,2.97037,2.04962,4.38679,1.28033,2.31678,2.96348,4.62436,5.61294,5.39909,1.815.53073,3.7608.77394,5.616,1.12374,5.91433,1.11516,11.84144,2.16355,17.76839,3.20907,6.6977,1.18148,13.17614,1.87057,19.95875,2.46121,5.74589.50036,11.49251,1.00417,17.23034,1.59092,2.75592.28182,5.51049.81572,8.27354.96262,10.10149.537,20.32832-.30292,30.39449.753,3.74307.39266,7.68864-.5,11.3953-1.01051,5.77305-.79508,11.57486-1.78762,17.401-2.09519,2.93217-.15478,5.43712.85887,8.36289,1.061,5.7919.40021,11.61273.29888,17.41248.519a43.23069,43.23069,0,0,1,7.25478.59112c1.08363.22958,1.76964.88706,2.81688,1.13973,1.83663.44312,4.033.0759,5.88161-.07493,3.0468-.2486,6.084-.60294,9.12968-.86473a52.45049,52.45049,0,0,1,8.45892-.283c1.9749.15169,2.89371.976,4.59072,1.662,2.09409.84651,4.74693.60674,6.93785.48313,3.18625-.17976,6.35485-.593,9.5255-.9408,2.309-.25332,5.14381-.878,7.45661-.36989a10.61973,10.61973,0,0,0,4.43733.51478c2.81663-.40738,5.549-1.289,8.32469-1.89518,1.118-.24417,2.69092-.789,3.83387-.50493.85819.21331,1.1442.91429,1.90185,1.35211,2.01338,1.16346,5.0392.77168,7.259,1.00911a4.78864,4.78864,0,0,1,3.77967,1.734c.53065.58685.73238,1.0061,1.612,1.11115,2.17047.25923,3.20409-2.09864,4.92439-2.56515-.89267.24207-.01869.39476.45709.74789a4.12814,4.12814,0,0,0,1.09592.70275,4.473,4.473,0,0,0,1.92937-.25477c1.10729-.23137,2.22448-.53255,3.34355-.69865.49209-.073-.46935-.59277-.21634-.02044.17363.39276.36462.779.54668,1.16793l2.77737,5.93358c.309.66013,1.28644.08528.97873-.5721l-3.46413-7.40078a.575.575,0,0,0-.64-.26046c-1.36705.28566-2.74543.53812-4.10481.85773-1.16138.273-1.40769-.26262-2.77013-1.13627a.57762.57762,0,0,0-.6868.08862,12.09975,12.09975,0,0,1-2.17445,1.61025c-1.68689.94331-2.28967-.06392-3.46744-1.06434-1.49657-1.27122-4.19327-1.15163-6.01482-1.272a13.19068,13.19068,0,0,1-4.16487-.52595c-.77522-.339-1.04187-1.03712-1.74649-1.41357-1.38972-.74247-3.593-.08059-5.01079.21929-2.70734.57265-5.36029,1.424-8.09326,1.87453-1.91639.31593-3.01934-.23094-4.79144-.49653-5.08532-.76217-10.83113.91613-15.917,1.27442-2.285.161-5.3012.58046-7.47456-.36164-1.387-.60122-2.21636-1.3723-3.81228-1.60471-5.17186-.75316-10.7081.26368-15.8621.76443a58.65507,58.65507,0,0,1-7.14719.46794,6.69173,6.69173,0,0,1-2.98217-.92194c-3.59441-1.538-8.80532-.96115-12.60228-1.05172-5.09656-.12158-10.30483.05782-15.3734-.56582a24.69345,24.69345,0,0,1-3.062-.82552,15.87719,15.87719,0,0,0-4.82012.01939c-5.46725.42823-10.903,1.29424-16.33283,2.042-3.63146.50014-7.48023,1.34162-11.14824.95335-9.58467-1.01455-19.36887-.33585-28.99335-.68047-7.55184-.2704-15.17617-1.57605-22.71268-2.24562-6.65527-.59128-13.22106-.92982-19.48775-2.02738q-8.17813-1.43233-16.3485-2.909c-2.55628-.46483-5.11219-.93281-7.66317-1.42605-2.21222-.42775-4.50982-.62844-6.20341-2.272-2.21818-2.15268-3.31615-5.20139-4.55459-7.9611-.21137-.471-.59363-1.55827-.62482-1.19566a2.68755,2.68755,0,0,1,.31534-.76278,64.72432,64.72432,0,0,1,3.96966-6.83478c5.10788-8.29583,10.45869-16.44454,15.80324-24.5889q8.27441-12.609,16.65824-25.14588,2.54409-3.81095,5.09591-7.61673a12.73392,12.73392,0,0,1,1.02454-1.52642c.236-.25782-.58184.34559.05432.01258,3.70989-1.942,7.92175-3.25062,11.791-4.83832l24.072-9.87776,59.02274-24.21948c9.88133-4.05473,19.69617-8.59342,29.76448-12.168,3.66725-1.302,7.37571-2.49729,11.06177-3.74532.35859-.12142.612-.66453.25009-.94725L673.3167,96.5543c-.84824-.66269-2.53462-1.52333-3.1248-2.44124.23147.36-.03124-.597-.068-.796-.13815-.74889-.25368-1.50255-.38046-2.25346l-.64587-3.82556a.57059.57059,0,0,0-.94725-.25009L660.5377,94.989a13.75407,13.75407,0,0,1-1.269,1.33375c-.337.26773.24367-.09742.02752.03594a5.3901,5.3901,0,0,1-.91147.35046c-3.98126,1.4961-7.93976,3.056-11.90811,4.58589q-24.38592,9.40144-48.74525,18.87173c-16.82033,6.54422-33.64264,13.08878-50.38785,19.82353-4.54373,1.82745-9.11468,3.61912-13.58527,5.62168-2.2597,1.01222-2.70172,2.00822-4.086,4.10316-9.57972,14.49816-19.50561,28.77737-29.392,43.067-4.76962,6.8939-9.53985,13.78968-14.41616,20.60879a47.35,47.35,0,0,1-3.66283,4.97625c-1.88933,2.0111-5.4445,2.53678-8.00935,3.16777a186.9121,186.9121,0,0,1-30.871,4.88747c-5.58782.40456-10.22072-2.4552-14.51-5.8149-2.15024-1.68425-4.66957-3.48019-5.6854-6.09667-6.017-15.49813-10.92045-31.49588-16.298-47.22313-2.36631-6.92048-4.69282-13.85858-7.17311-20.73937a9.86366,9.86366,0,0,0-1.2948-2.94409c-1.47354-1.8216-3.87256-3.28275-5.67523-4.75347-7.35286-5.99886-14.774-11.91463-22.19256-17.83187-4.00407-3.19375-8.26794-6.20737-12.031-9.68768q-3.94946-3.65265-7.89315-7.31154a.5736.5736,0,0,0-.9675.40074l-.06381,5.1685a8.83117,8.83117,0,0,1-.02755,2.23185c.21208-.66164-.90044.7072-1.171.98777-.62589.64915-2.45577,2.14328-2.39183,3.2051.078,1.29516,1.37174.76888,2.29022.75722a16.85732,16.85732,0,0,1,6.70144,1.29689c.41628.21335-.27612-.20346.17157.10264a7.32508,7.32508,0,0,1,.836.806l6.72951,6.48844,18.74647,18.075c1.36783,1.31883,3.21623,2.62393,4.32611,4.17114-.31189-.43478-.00767.1067.09643.33665.32909.72692.57284,1.50694.85629,2.2526l17.05,44.8528,7.24642,19.06288c.36105.94979.79384,1.90179,1.08751,2.87556.584,1.93635,1.088,5.73743-.66516,7.26968a6.73772,6.73772,0,0,1-2.24959.96447c-7.26034,2.44295-14.99108,3.79016-22.49621,5.23042-9.0466,1.73607-18.177,3.35589-27.35726,4.1909-2.3252.21149-5.618.86309-7.91756.13327-1.33883-.42491-2.31354-1.593-3.60561-2.22547a20.41588,20.41588,0,0,0-7.697-1.876,13.735,13.735,0,0,1-3.39355-.28157,21.51377,21.51377,0,0,1-4.29272-2.35941c-1.13774-.67859-2.665-1.20959-3.63279-1.79023a23.23336,23.23336,0,0,1-3.595-3.212c-12.10022-11.46678-23.64334-23.55145-35.29081-35.4728q-9.05859-9.27159-18.08822-18.57139c-2.97691-3.06316-5.86461-6.84018-9.234-9.48566a9.63681,9.63681,0,0,0-3.90959-1.43929c-2.9822-.67748-6.02038-1.12531-9.04522-1.56316-8.71493-1.26148-17.47685-2.20738-26.23492-3.11089q-12.99445-1.34055-26.0089-2.47838-4.09535-.36309-8.19211-.71006c-.68584-.05794-1.40721-.0581-2.08589-.17471-.81731-.14042.03623.10768-.73014-.24921-3.03769-1.41458-5.93509-3.25847-8.8739-4.87194a.5736.5736,0,0,0-.83255.64l.96706,4.00639.637,2.63891c.04408.18261.311,1.56574.31845,1.11652-.0444,2.6694-1.3198,5.71915-1.92249,8.33079a.5736.5736,0,0,0,.83255.64l8.00413-4.6626a7.76714,7.76714,0,0,1,1.344-.78289c.41858-.1309-.56869.02295-.19-.00842a6.315,6.315,0,0,1,1.25952.17669q7.68384,1.08543,15.35067,2.28834c15.21895,2.37453,30.72692,4.60014,45.571,8.80511a31.6766,31.6766,0,0,1,6.38641,2.27123,14.45229,14.45229,0,0,1,3.40509,3.19494c5.06474,5.37233,10.31824,10.572,15.54545,15.78512,12.7091,12.67475,25.91393,24.87157,38.56843,37.59121.99773,1.00286,6.59329,6.04989,4.01535,7.0904-1.04536.42193-3.68341-.13093-4.96592-.17044l-6.62722-.20416c-2.32729-.07169-5.20627.40239-6.83239-1.6363-1.6148-2.02448-2.84707-3.86155-5.4394-4.77036a7.28231,7.28231,0,0,0-6.70991.86624,6.54694,6.54694,0,0,0-2.84558,6.006c.23924,2.05081.62953,3.54851.01722,5.61888a14.90838,14.90838,0,0,1-2.32655,4.67689c-.43525.586.54816,1.15177.97873.5721Z" transform="translate(-83.8267 -86.82838)" fill="#231f20"/>
    </g>
  </g>
</svg>
